ISO-10303-21;
HEADER;
/* Generated by software containing ST-Developer
 * from STEP Tools, Inc. (www.steptools.com) 
 */

FILE_DESCRIPTION(
/* description */ (''),
/* implementation_level */ '2;1');

FILE_NAME(
/* name */ 'Macropad.bottom.step',
/* time_stamp */ '2026-08-25T17:58:01-04:00',
/* author */ (''),
/* organization */ (''),
/* preprocessor_version */ 'ST-DEVELOPER v20.1',
/* originating_system */ 'Autodesk Translation Framework v15.8.0.0',
/* authorisation */ '');

FILE_SCHEMA (('AUTOMOTIVE_DESIGN { 1 0 10303 214 3 1 1 }'));
ENDSEC;

DATA;
#10=MECHANICAL_DESIGN_GEOMETRIC_PRESENTATION_REPRESENTATION('',(#13,#14,
#15),#1776);
#11=SHAPE_REPRESENTATION_RELATIONSHIP('SRR','None',#1783,#12);
#12=ADVANCED_BREP_SHAPE_REPRESENTATION('',(#16,#17),#1775);
#13=STYLED_ITEM('',(#1793),#16);
#14=STYLED_ITEM('',(#1794),#1073);
#15=STYLED_ITEM('',(#1792),#17);
#16=MANIFOLD_SOLID_BREP('Body3',#1111);
#17=MANIFOLD_SOLID_BREP('Body6',#1112);
#18=CYLINDRICAL_SURFACE('',#1134,1.45);
#19=CYLINDRICAL_SURFACE('',#1138,1.45);
#20=CYLINDRICAL_SURFACE('',#1140,1.45);
#21=CYLINDRICAL_SURFACE('',#1142,1.45);
#22=CYLINDRICAL_SURFACE('',#1149,7.5);
#23=CYLINDRICAL_SURFACE('',#1175,1.45000000000001);
#24=CYLINDRICAL_SURFACE('',#1177,1.44999999999999);
#25=CYLINDRICAL_SURFACE('',#1179,1.45);
#26=CYLINDRICAL_SURFACE('',#1181,1.45);
#27=FACE_BOUND('',#131,.T.);
#28=FACE_BOUND('',#132,.T.);
#29=FACE_BOUND('',#133,.T.);
#30=FACE_BOUND('',#134,.T.);
#31=FACE_BOUND('',#135,.T.);
#32=FACE_BOUND('',#150,.T.);
#33=FACE_BOUND('',#151,.T.);
#34=FACE_BOUND('',#152,.T.);
#35=FACE_BOUND('',#153,.T.);
#36=FACE_BOUND('',#156,.T.);
#37=FACE_BOUND('',#157,.T.);
#38=FACE_BOUND('',#158,.T.);
#39=FACE_BOUND('',#159,.T.);
#40=FACE_BOUND('',#160,.T.);
#41=FACE_BOUND('',#161,.T.);
#42=FACE_BOUND('',#162,.T.);
#43=FACE_BOUND('',#163,.T.);
#44=FACE_BOUND('',#164,.T.);
#45=FACE_BOUND('',#165,.T.);
#46=FACE_BOUND('',#166,.T.);
#47=FACE_BOUND('',#204,.T.);
#48=FACE_BOUND('',#205,.T.);
#49=FACE_BOUND('',#206,.T.);
#50=FACE_BOUND('',#207,.T.);
#51=FACE_BOUND('',#208,.T.);
#52=FACE_BOUND('',#209,.T.);
#53=FACE_BOUND('',#210,.T.);
#54=FACE_BOUND('',#211,.T.);
#55=FACE_BOUND('',#212,.T.);
#56=FACE_BOUND('',#213,.T.);
#57=FACE_BOUND('',#214,.T.);
#58=CIRCLE('',#1127,1.45);
#59=CIRCLE('',#1128,1.45);
#60=CIRCLE('',#1129,1.45);
#61=CIRCLE('',#1130,1.45);
#62=CIRCLE('',#1135,1.45);
#63=CIRCLE('',#1139,1.45);
#64=CIRCLE('',#1141,1.45);
#65=CIRCLE('',#1143,1.45);
#66=CIRCLE('',#1150,7.5);
#67=CIRCLE('',#1151,7.5);
#68=CIRCLE('',#1153,1.44999999999999);
#69=CIRCLE('',#1154,1.45);
#70=CIRCLE('',#1155,1.45);
#71=CIRCLE('',#1156,1.45000000000001);
#72=CIRCLE('',#1176,1.45000000000001);
#73=CIRCLE('',#1178,1.44999999999999);
#74=CIRCLE('',#1180,1.45);
#75=CIRCLE('',#1182,1.45);
#76=FACE_OUTER_BOUND('',#130,.T.);
#77=FACE_OUTER_BOUND('',#136,.T.);
#78=FACE_OUTER_BOUND('',#137,.T.);
#79=FACE_OUTER_BOUND('',#138,.T.);
#80=FACE_OUTER_BOUND('',#139,.T.);
#81=FACE_OUTER_BOUND('',#140,.T.);
#82=FACE_OUTER_BOUND('',#141,.T.);
#83=FACE_OUTER_BOUND('',#142,.T.);
#84=FACE_OUTER_BOUND('',#143,.T.);
#85=FACE_OUTER_BOUND('',#144,.T.);
#86=FACE_OUTER_BOUND('',#145,.T.);
#87=FACE_OUTER_BOUND('',#146,.T.);
#88=FACE_OUTER_BOUND('',#147,.T.);
#89=FACE_OUTER_BOUND('',#148,.T.);
#90=FACE_OUTER_BOUND('',#149,.T.);
#91=FACE_OUTER_BOUND('',#154,.T.);
#92=FACE_OUTER_BOUND('',#155,.T.);
#93=FACE_OUTER_BOUND('',#167,.T.);
#94=FACE_OUTER_BOUND('',#168,.T.);
#95=FACE_OUTER_BOUND('',#169,.T.);
#96=FACE_OUTER_BOUND('',#170,.T.);
#97=FACE_OUTER_BOUND('',#171,.T.);
#98=FACE_OUTER_BOUND('',#172,.T.);
#99=FACE_OUTER_BOUND('',#173,.T.);
#100=FACE_OUTER_BOUND('',#174,.T.);
#101=FACE_OUTER_BOUND('',#175,.T.);
#102=FACE_OUTER_BOUND('',#176,.T.);
#103=FACE_OUTER_BOUND('',#177,.T.);
#104=FACE_OUTER_BOUND('',#178,.T.);
#105=FACE_OUTER_BOUND('',#179,.T.);
#106=FACE_OUTER_BOUND('',#180,.T.);
#107=FACE_OUTER_BOUND('',#181,.T.);
#108=FACE_OUTER_BOUND('',#182,.T.);
#109=FACE_OUTER_BOUND('',#183,.T.);
#110=FACE_OUTER_BOUND('',#184,.T.);
#111=FACE_OUTER_BOUND('',#185,.T.);
#112=FACE_OUTER_BOUND('',#186,.T.);
#113=FACE_OUTER_BOUND('',#187,.T.);
#114=FACE_OUTER_BOUND('',#188,.T.);
#115=FACE_OUTER_BOUND('',#189,.T.);
#116=FACE_OUTER_BOUND('',#190,.T.);
#117=FACE_OUTER_BOUND('',#191,.T.);
#118=FACE_OUTER_BOUND('',#192,.T.);
#119=FACE_OUTER_BOUND('',#193,.T.);
#120=FACE_OUTER_BOUND('',#194,.T.);
#121=FACE_OUTER_BOUND('',#195,.T.);
#122=FACE_OUTER_BOUND('',#196,.T.);
#123=FACE_OUTER_BOUND('',#197,.T.);
#124=FACE_OUTER_BOUND('',#198,.T.);
#125=FACE_OUTER_BOUND('',#199,.T.);
#126=FACE_OUTER_BOUND('',#200,.T.);
#127=FACE_OUTER_BOUND('',#201,.T.);
#128=FACE_OUTER_BOUND('',#202,.T.);
#129=FACE_OUTER_BOUND('',#203,.T.);
#130=EDGE_LOOP('',(#718,#719,#720,#721));
#131=EDGE_LOOP('',(#722));
#132=EDGE_LOOP('',(#723));
#133=EDGE_LOOP('',(#724));
#134=EDGE_LOOP('',(#725,#726,#727,#728));
#135=EDGE_LOOP('',(#729));
#136=EDGE_LOOP('',(#730,#731,#732,#733));
#137=EDGE_LOOP('',(#734,#735,#736,#737));
#138=EDGE_LOOP('',(#738,#739,#740,#741));
#139=EDGE_LOOP('',(#742,#743,#744,#745));
#140=EDGE_LOOP('',(#746,#747,#748,#749));
#141=EDGE_LOOP('',(#750,#751,#752,#753));
#142=EDGE_LOOP('',(#754,#755,#756,#757));
#143=EDGE_LOOP('',(#758,#759,#760,#761));
#144=EDGE_LOOP('',(#762,#763,#764,#765));
#145=EDGE_LOOP('',(#766,#767,#768,#769));
#146=EDGE_LOOP('',(#770,#771,#772,#773));
#147=EDGE_LOOP('',(#774,#775,#776,#777));
#148=EDGE_LOOP('',(#778,#779,#780,#781));
#149=EDGE_LOOP('',(#782,#783,#784,#785));
#150=EDGE_LOOP('',(#786));
#151=EDGE_LOOP('',(#787));
#152=EDGE_LOOP('',(#788));
#153=EDGE_LOOP('',(#789));
#154=EDGE_LOOP('',(#790,#791,#792,#793));
#155=EDGE_LOOP('',(#794,#795,#796,#797,#798,#799,#800,#801));
#156=EDGE_LOOP('',(#802));
#157=EDGE_LOOP('',(#803,#804,#805,#806));
#158=EDGE_LOOP('',(#807,#808,#809,#810));
#159=EDGE_LOOP('',(#811,#812,#813,#814));
#160=EDGE_LOOP('',(#815,#816,#817,#818));
#161=EDGE_LOOP('',(#819,#820,#821,#822));
#162=EDGE_LOOP('',(#823,#824,#825,#826));
#163=EDGE_LOOP('',(#827));
#164=EDGE_LOOP('',(#828));
#165=EDGE_LOOP('',(#829));
#166=EDGE_LOOP('',(#830));
#167=EDGE_LOOP('',(#831,#832,#833,#834));
#168=EDGE_LOOP('',(#835,#836,#837,#838));
#169=EDGE_LOOP('',(#839,#840,#841,#842));
#170=EDGE_LOOP('',(#843,#844,#845,#846));
#171=EDGE_LOOP('',(#847,#848,#849,#850,#851,#852,#853,#854));
#172=EDGE_LOOP('',(#855,#856,#857,#858));
#173=EDGE_LOOP('',(#859,#860,#861,#862));
#174=EDGE_LOOP('',(#863,#864,#865,#866));
#175=EDGE_LOOP('',(#867,#868,#869,#870));
#176=EDGE_LOOP('',(#871,#872,#873,#874));
#177=EDGE_LOOP('',(#875,#876,#877,#878));
#178=EDGE_LOOP('',(#879,#880,#881,#882));
#179=EDGE_LOOP('',(#883,#884,#885,#886));
#180=EDGE_LOOP('',(#887,#888,#889,#890));
#181=EDGE_LOOP('',(#891,#892,#893,#894));
#182=EDGE_LOOP('',(#895,#896,#897,#898));
#183=EDGE_LOOP('',(#899,#900,#901,#902));
#184=EDGE_LOOP('',(#903,#904,#905,#906));
#185=EDGE_LOOP('',(#907,#908,#909,#910));
#186=EDGE_LOOP('',(#911,#912,#913,#914));
#187=EDGE_LOOP('',(#915,#916,#917,#918));
#188=EDGE_LOOP('',(#919,#920,#921,#922));
#189=EDGE_LOOP('',(#923,#924,#925,#926));
#190=EDGE_LOOP('',(#927,#928,#929,#930));
#191=EDGE_LOOP('',(#931,#932,#933,#934));
#192=EDGE_LOOP('',(#935,#936,#937,#938));
#193=EDGE_LOOP('',(#939,#940,#941,#942));
#194=EDGE_LOOP('',(#943,#944,#945,#946));
#195=EDGE_LOOP('',(#947,#948,#949,#950));
#196=EDGE_LOOP('',(#951,#952,#953,#954));
#197=EDGE_LOOP('',(#955,#956,#957,#958));
#198=EDGE_LOOP('',(#959,#960,#961,#962));
#199=EDGE_LOOP('',(#963,#964,#965,#966));
#200=EDGE_LOOP('',(#967,#968,#969,#970));
#201=EDGE_LOOP('',(#971,#972,#973,#974));
#202=EDGE_LOOP('',(#975,#976,#977,#978));
#203=EDGE_LOOP('',(#979,#980,#981,#982));
#204=EDGE_LOOP('',(#983));
#205=EDGE_LOOP('',(#984));
#206=EDGE_LOOP('',(#985));
#207=EDGE_LOOP('',(#986,#987,#988,#989));
#208=EDGE_LOOP('',(#990,#991,#992,#993));
#209=EDGE_LOOP('',(#994,#995,#996,#997));
#210=EDGE_LOOP('',(#998,#999,#1000,#1001));
#211=EDGE_LOOP('',(#1002,#1003,#1004,#1005));
#212=EDGE_LOOP('',(#1006,#1007,#1008,#1009));
#213=EDGE_LOOP('',(#1010));
#214=EDGE_LOOP('',(#1011));
#215=LINE('',#1477,#344);
#216=LINE('',#1479,#345);
#217=LINE('',#1481,#346);
#218=LINE('',#1482,#347);
#219=LINE('',#1491,#348);
#220=LINE('',#1493,#349);
#221=LINE('',#1495,#350);
#222=LINE('',#1496,#351);
#223=LINE('',#1502,#352);
#224=LINE('',#1504,#353);
#225=LINE('',#1506,#354);
#226=LINE('',#1507,#355);
#227=LINE('',#1509,#356);
#228=LINE('',#1510,#357);
#229=LINE('',#1512,#358);
#230=LINE('',#1515,#359);
#231=LINE('',#1518,#360);
#232=LINE('',#1522,#361);
#233=LINE('',#1526,#362);
#234=LINE('',#1530,#363);
#235=LINE('',#1535,#364);
#236=LINE('',#1536,#365);
#237=LINE('',#1537,#366);
#238=LINE('',#1540,#367);
#239=LINE('',#1541,#368);
#240=LINE('',#1544,#369);
#241=LINE('',#1545,#370);
#242=LINE('',#1547,#371);
#243=LINE('',#1553,#372);
#244=LINE('',#1558,#373);
#245=LINE('',#1560,#374);
#246=LINE('',#1562,#375);
#247=LINE('',#1564,#376);
#248=LINE('',#1566,#377);
#249=LINE('',#1568,#378);
#250=LINE('',#1570,#379);
#251=LINE('',#1571,#380);
#252=LINE('',#1576,#381);
#253=LINE('',#1578,#382);
#254=LINE('',#1580,#383);
#255=LINE('',#1581,#384);
#256=LINE('',#1584,#385);
#257=LINE('',#1586,#386);
#258=LINE('',#1588,#387);
#259=LINE('',#1589,#388);
#260=LINE('',#1592,#389);
#261=LINE('',#1594,#390);
#262=LINE('',#1596,#391);
#263=LINE('',#1597,#392);
#264=LINE('',#1600,#393);
#265=LINE('',#1602,#394);
#266=LINE('',#1604,#395);
#267=LINE('',#1605,#396);
#268=LINE('',#1608,#397);
#269=LINE('',#1610,#398);
#270=LINE('',#1612,#399);
#271=LINE('',#1613,#400);
#272=LINE('',#1616,#401);
#273=LINE('',#1618,#402);
#274=LINE('',#1620,#403);
#275=LINE('',#1621,#404);
#276=LINE('',#1631,#405);
#277=LINE('',#1633,#406);
#278=LINE('',#1635,#407);
#279=LINE('',#1636,#408);
#280=LINE('',#1638,#409);
#281=LINE('',#1639,#410);
#282=LINE('',#1641,#411);
#283=LINE('',#1642,#412);
#284=LINE('',#1646,#413);
#285=LINE('',#1648,#414);
#286=LINE('',#1649,#415);
#287=LINE('',#1652,#416);
#288=LINE('',#1654,#417);
#289=LINE('',#1655,#418);
#290=LINE('',#1658,#419);
#291=LINE('',#1659,#420);
#292=LINE('',#1662,#421);
#293=LINE('',#1664,#422);
#294=LINE('',#1665,#423);
#295=LINE('',#1668,#424);
#296=LINE('',#1669,#425);
#297=LINE('',#1672,#426);
#298=LINE('',#1674,#427);
#299=LINE('',#1675,#428);
#300=LINE('',#1678,#429);
#301=LINE('',#1679,#430);
#302=LINE('',#1682,#431);
#303=LINE('',#1684,#432);
#304=LINE('',#1685,#433);
#305=LINE('',#1688,#434);
#306=LINE('',#1689,#435);
#307=LINE('',#1692,#436);
#308=LINE('',#1694,#437);
#309=LINE('',#1695,#438);
#310=LINE('',#1698,#439);
#311=LINE('',#1699,#440);
#312=LINE('',#1702,#441);
#313=LINE('',#1704,#442);
#314=LINE('',#1705,#443);
#315=LINE('',#1708,#444);
#316=LINE('',#1709,#445);
#317=LINE('',#1712,#446);
#318=LINE('',#1713,#447);
#319=LINE('',#1717,#448);
#320=LINE('',#1721,#449);
#321=LINE('',#1725,#450);
#322=LINE('',#1729,#451);
#323=LINE('',#1732,#452);
#324=LINE('',#1733,#453);
#325=LINE('',#1735,#454);
#326=LINE('',#1738,#455);
#327=LINE('',#1739,#456);
#328=LINE('',#1741,#457);
#329=LINE('',#1744,#458);
#330=LINE('',#1745,#459);
#331=LINE('',#1747,#460);
#332=LINE('',#1750,#461);
#333=LINE('',#1751,#462);
#334=LINE('',#1753,#463);
#335=LINE('',#1756,#464);
#336=LINE('',#1757,#465);
#337=LINE('',#1759,#466);
#338=LINE('',#1762,#467);
#339=LINE('',#1763,#468);
#340=LINE('',#1765,#469);
#341=LINE('',#1768,#470);
#342=LINE('',#1769,#471);
#343=LINE('',#1771,#472);
#344=VECTOR('',#1202,10.);
#345=VECTOR('',#1203,10.);
#346=VECTOR('',#1204,10.);
#347=VECTOR('',#1205,10.);
#348=VECTOR('',#1212,10.);
#349=VECTOR('',#1213,10.);
#350=VECTOR('',#1214,10.);
#351=VECTOR('',#1215,10.);
#352=VECTOR('',#1220,10.);
#353=VECTOR('',#1221,10.);
#354=VECTOR('',#1222,10.);
#355=VECTOR('',#1223,10.);
#356=VECTOR('',#1226,10.);
#357=VECTOR('',#1227,10.);
#358=VECTOR('',#1230,10.);
#359=VECTOR('',#1233,1.45);
#360=VECTOR('',#1238,10.);
#361=VECTOR('',#1243,1.45);
#362=VECTOR('',#1248,1.45);
#363=VECTOR('',#1253,1.45);
#364=VECTOR('',#1258,10.);
#365=VECTOR('',#1259,10.);
#366=VECTOR('',#1260,10.);
#367=VECTOR('',#1263,10.);
#368=VECTOR('',#1264,10.);
#369=VECTOR('',#1267,10.);
#370=VECTOR('',#1268,10.);
#371=VECTOR('',#1271,10.);
#372=VECTOR('',#1278,7.5);
#373=VECTOR('',#1283,10.);
#374=VECTOR('',#1284,10.);
#375=VECTOR('',#1285,10.);
#376=VECTOR('',#1286,10.);
#377=VECTOR('',#1287,10.);
#378=VECTOR('',#1288,10.);
#379=VECTOR('',#1289,10.);
#380=VECTOR('',#1290,10.);
#381=VECTOR('',#1293,10.);
#382=VECTOR('',#1294,10.);
#383=VECTOR('',#1295,10.);
#384=VECTOR('',#1296,10.);
#385=VECTOR('',#1297,10.);
#386=VECTOR('',#1298,10.);
#387=VECTOR('',#1299,10.);
#388=VECTOR('',#1300,10.);
#389=VECTOR('',#1301,10.);
#390=VECTOR('',#1302,10.);
#391=VECTOR('',#1303,10.);
#392=VECTOR('',#1304,10.);
#393=VECTOR('',#1305,10.);
#394=VECTOR('',#1306,10.);
#395=VECTOR('',#1307,10.);
#396=VECTOR('',#1308,10.);
#397=VECTOR('',#1309,10.);
#398=VECTOR('',#1310,10.);
#399=VECTOR('',#1311,10.);
#400=VECTOR('',#1312,10.);
#401=VECTOR('',#1313,10.);
#402=VECTOR('',#1314,10.);
#403=VECTOR('',#1315,10.);
#404=VECTOR('',#1316,10.);
#405=VECTOR('',#1325,10.);
#406=VECTOR('',#1326,10.);
#407=VECTOR('',#1327,10.);
#408=VECTOR('',#1328,10.);
#409=VECTOR('',#1331,10.);
#410=VECTOR('',#1332,10.);
#411=VECTOR('',#1335,10.);
#412=VECTOR('',#1336,10.);
#413=VECTOR('',#1341,10.);
#414=VECTOR('',#1342,10.);
#415=VECTOR('',#1343,10.);
#416=VECTOR('',#1346,10.);
#417=VECTOR('',#1347,10.);
#418=VECTOR('',#1348,10.);
#419=VECTOR('',#1351,10.);
#420=VECTOR('',#1352,10.);
#421=VECTOR('',#1355,10.);
#422=VECTOR('',#1356,10.);
#423=VECTOR('',#1357,10.);
#424=VECTOR('',#1360,10.);
#425=VECTOR('',#1361,10.);
#426=VECTOR('',#1364,10.);
#427=VECTOR('',#1365,10.);
#428=VECTOR('',#1366,10.);
#429=VECTOR('',#1369,10.);
#430=VECTOR('',#1370,10.);
#431=VECTOR('',#1373,10.);
#432=VECTOR('',#1374,10.);
#433=VECTOR('',#1375,10.);
#434=VECTOR('',#1378,10.);
#435=VECTOR('',#1379,10.);
#436=VECTOR('',#1382,10.);
#437=VECTOR('',#1383,10.);
#438=VECTOR('',#1384,10.);
#439=VECTOR('',#1387,10.);
#440=VECTOR('',#1388,10.);
#441=VECTOR('',#1391,10.);
#442=VECTOR('',#1392,10.);
#443=VECTOR('',#1393,10.);
#444=VECTOR('',#1396,10.);
#445=VECTOR('',#1397,10.);
#446=VECTOR('',#1400,10.);
#447=VECTOR('',#1401,10.);
#448=VECTOR('',#1406,1.45000000000001);
#449=VECTOR('',#1411,1.44999999999999);
#450=VECTOR('',#1416,1.45);
#451=VECTOR('',#1421,1.45);
#452=VECTOR('',#1424,10.);
#453=VECTOR('',#1425,10.);
#454=VECTOR('',#1428,10.);
#455=VECTOR('',#1431,10.);
#456=VECTOR('',#1432,10.);
#457=VECTOR('',#1435,10.);
#458=VECTOR('',#1438,10.);
#459=VECTOR('',#1439,10.);
#460=VECTOR('',#1442,10.);
#461=VECTOR('',#1445,10.);
#462=VECTOR('',#1446,10.);
#463=VECTOR('',#1449,10.);
#464=VECTOR('',#1452,10.);
#465=VECTOR('',#1453,10.);
#466=VECTOR('',#1456,10.);
#467=VECTOR('',#1459,10.);
#468=VECTOR('',#1460,10.);
#469=VECTOR('',#1463,10.);
#470=VECTOR('',#1466,10.);
#471=VECTOR('',#1467,10.);
#472=VECTOR('',#1470,10.);
#473=VERTEX_POINT('',#1475);
#474=VERTEX_POINT('',#1476);
#475=VERTEX_POINT('',#1478);
#476=VERTEX_POINT('',#1480);
#477=VERTEX_POINT('',#1483);
#478=VERTEX_POINT('',#1485);
#479=VERTEX_POINT('',#1487);
#480=VERTEX_POINT('',#1489);
#481=VERTEX_POINT('',#1490);
#482=VERTEX_POINT('',#1492);
#483=VERTEX_POINT('',#1494);
#484=VERTEX_POINT('',#1497);
#485=VERTEX_POINT('',#1500);
#486=VERTEX_POINT('',#1501);
#487=VERTEX_POINT('',#1503);
#488=VERTEX_POINT('',#1505);
#489=VERTEX_POINT('',#1514);
#490=VERTEX_POINT('',#1521);
#491=VERTEX_POINT('',#1525);
#492=VERTEX_POINT('',#1529);
#493=VERTEX_POINT('',#1533);
#494=VERTEX_POINT('',#1534);
#495=VERTEX_POINT('',#1539);
#496=VERTEX_POINT('',#1543);
#497=VERTEX_POINT('',#1550);
#498=VERTEX_POINT('',#1552);
#499=VERTEX_POINT('',#1556);
#500=VERTEX_POINT('',#1557);
#501=VERTEX_POINT('',#1559);
#502=VERTEX_POINT('',#1561);
#503=VERTEX_POINT('',#1563);
#504=VERTEX_POINT('',#1565);
#505=VERTEX_POINT('',#1567);
#506=VERTEX_POINT('',#1569);
#507=VERTEX_POINT('',#1572);
#508=VERTEX_POINT('',#1574);
#509=VERTEX_POINT('',#1575);
#510=VERTEX_POINT('',#1577);
#511=VERTEX_POINT('',#1579);
#512=VERTEX_POINT('',#1582);
#513=VERTEX_POINT('',#1583);
#514=VERTEX_POINT('',#1585);
#515=VERTEX_POINT('',#1587);
#516=VERTEX_POINT('',#1590);
#517=VERTEX_POINT('',#1591);
#518=VERTEX_POINT('',#1593);
#519=VERTEX_POINT('',#1595);
#520=VERTEX_POINT('',#1598);
#521=VERTEX_POINT('',#1599);
#522=VERTEX_POINT('',#1601);
#523=VERTEX_POINT('',#1603);
#524=VERTEX_POINT('',#1606);
#525=VERTEX_POINT('',#1607);
#526=VERTEX_POINT('',#1609);
#527=VERTEX_POINT('',#1611);
#528=VERTEX_POINT('',#1614);
#529=VERTEX_POINT('',#1615);
#530=VERTEX_POINT('',#1617);
#531=VERTEX_POINT('',#1619);
#532=VERTEX_POINT('',#1622);
#533=VERTEX_POINT('',#1624);
#534=VERTEX_POINT('',#1626);
#535=VERTEX_POINT('',#1629);
#536=VERTEX_POINT('',#1630);
#537=VERTEX_POINT('',#1632);
#538=VERTEX_POINT('',#1634);
#539=VERTEX_POINT('',#1645);
#540=VERTEX_POINT('',#1647);
#541=VERTEX_POINT('',#1651);
#542=VERTEX_POINT('',#1653);
#543=VERTEX_POINT('',#1657);
#544=VERTEX_POINT('',#1661);
#545=VERTEX_POINT('',#1663);
#546=VERTEX_POINT('',#1667);
#547=VERTEX_POINT('',#1671);
#548=VERTEX_POINT('',#1673);
#549=VERTEX_POINT('',#1677);
#550=VERTEX_POINT('',#1681);
#551=VERTEX_POINT('',#1683);
#552=VERTEX_POINT('',#1687);
#553=VERTEX_POINT('',#1691);
#554=VERTEX_POINT('',#1693);
#555=VERTEX_POINT('',#1697);
#556=VERTEX_POINT('',#1701);
#557=VERTEX_POINT('',#1703);
#558=VERTEX_POINT('',#1707);
#559=VERTEX_POINT('',#1711);
#560=VERTEX_POINT('',#1715);
#561=VERTEX_POINT('',#1719);
#562=VERTEX_POINT('',#1723);
#563=VERTEX_POINT('',#1727);
#564=VERTEX_POINT('',#1731);
#565=VERTEX_POINT('',#1737);
#566=VERTEX_POINT('',#1743);
#567=VERTEX_POINT('',#1749);
#568=VERTEX_POINT('',#1755);
#569=VERTEX_POINT('',#1761);
#570=VERTEX_POINT('',#1767);
#571=EDGE_CURVE('',#473,#474,#215,.T.);
#572=EDGE_CURVE('',#474,#475,#216,.T.);
#573=EDGE_CURVE('',#475,#476,#217,.T.);
#574=EDGE_CURVE('',#476,#473,#218,.T.);
#575=EDGE_CURVE('',#477,#477,#58,.T.);
#576=EDGE_CURVE('',#478,#478,#59,.T.);
#577=EDGE_CURVE('',#479,#479,#60,.T.);
#578=EDGE_CURVE('',#480,#481,#219,.T.);
#579=EDGE_CURVE('',#481,#482,#220,.T.);
#580=EDGE_CURVE('',#482,#483,#221,.T.);
#581=EDGE_CURVE('',#483,#480,#222,.T.);
#582=EDGE_CURVE('',#484,#484,#61,.T.);
#583=EDGE_CURVE('',#485,#486,#223,.T.);
#584=EDGE_CURVE('',#487,#485,#224,.T.);
#585=EDGE_CURVE('',#488,#487,#225,.T.);
#586=EDGE_CURVE('',#486,#488,#226,.T.);
#587=EDGE_CURVE('',#487,#483,#227,.T.);
#588=EDGE_CURVE('',#488,#482,#228,.T.);
#589=EDGE_CURVE('',#485,#480,#229,.T.);
#590=EDGE_CURVE('',#484,#489,#230,.T.);
#591=EDGE_CURVE('',#489,#489,#62,.T.);
#592=EDGE_CURVE('',#486,#481,#231,.T.);
#593=EDGE_CURVE('',#479,#490,#232,.T.);
#594=EDGE_CURVE('',#490,#490,#63,.T.);
#595=EDGE_CURVE('',#478,#491,#233,.T.);
#596=EDGE_CURVE('',#491,#491,#64,.T.);
#597=EDGE_CURVE('',#477,#492,#234,.T.);
#598=EDGE_CURVE('',#492,#492,#65,.T.);
#599=EDGE_CURVE('',#493,#494,#235,.T.);
#600=EDGE_CURVE('',#494,#473,#236,.T.);
#601=EDGE_CURVE('',#493,#476,#237,.T.);
#602=EDGE_CURVE('',#493,#495,#238,.T.);
#603=EDGE_CURVE('',#495,#475,#239,.T.);
#604=EDGE_CURVE('',#496,#495,#240,.T.);
#605=EDGE_CURVE('',#496,#474,#241,.T.);
#606=EDGE_CURVE('',#496,#494,#242,.T.);
#607=EDGE_CURVE('',#497,#497,#66,.T.);
#608=EDGE_CURVE('',#497,#498,#243,.T.);
#609=EDGE_CURVE('',#498,#498,#67,.T.);
#610=EDGE_CURVE('',#499,#500,#244,.T.);
#611=EDGE_CURVE('',#500,#501,#245,.T.);
#612=EDGE_CURVE('',#501,#502,#246,.T.);
#613=EDGE_CURVE('',#502,#503,#247,.T.);
#614=EDGE_CURVE('',#503,#504,#248,.T.);
#615=EDGE_CURVE('',#504,#505,#249,.T.);
#616=EDGE_CURVE('',#505,#506,#250,.T.);
#617=EDGE_CURVE('',#506,#499,#251,.T.);
#618=EDGE_CURVE('',#507,#507,#68,.T.);
#619=EDGE_CURVE('',#508,#509,#252,.T.);
#620=EDGE_CURVE('',#509,#510,#253,.T.);
#621=EDGE_CURVE('',#510,#511,#254,.T.);
#622=EDGE_CURVE('',#511,#508,#255,.T.);
#623=EDGE_CURVE('',#512,#513,#256,.T.);
#624=EDGE_CURVE('',#513,#514,#257,.T.);
#625=EDGE_CURVE('',#514,#515,#258,.T.);
#626=EDGE_CURVE('',#515,#512,#259,.T.);
#627=EDGE_CURVE('',#516,#517,#260,.T.);
#628=EDGE_CURVE('',#517,#518,#261,.T.);
#629=EDGE_CURVE('',#518,#519,#262,.T.);
#630=EDGE_CURVE('',#519,#516,#263,.T.);
#631=EDGE_CURVE('',#520,#521,#264,.T.);
#632=EDGE_CURVE('',#521,#522,#265,.T.);
#633=EDGE_CURVE('',#522,#523,#266,.T.);
#634=EDGE_CURVE('',#523,#520,#267,.T.);
#635=EDGE_CURVE('',#524,#525,#268,.T.);
#636=EDGE_CURVE('',#525,#526,#269,.T.);
#637=EDGE_CURVE('',#526,#527,#270,.T.);
#638=EDGE_CURVE('',#527,#524,#271,.T.);
#639=EDGE_CURVE('',#528,#529,#272,.T.);
#640=EDGE_CURVE('',#529,#530,#273,.T.);
#641=EDGE_CURVE('',#530,#531,#274,.T.);
#642=EDGE_CURVE('',#531,#528,#275,.T.);
#643=EDGE_CURVE('',#532,#532,#69,.T.);
#644=EDGE_CURVE('',#533,#533,#70,.T.);
#645=EDGE_CURVE('',#534,#534,#71,.T.);
#646=EDGE_CURVE('',#535,#536,#276,.T.);
#647=EDGE_CURVE('',#535,#537,#277,.T.);
#648=EDGE_CURVE('',#537,#538,#278,.T.);
#649=EDGE_CURVE('',#536,#538,#279,.T.);
#650=EDGE_CURVE('',#536,#505,#280,.T.);
#651=EDGE_CURVE('',#538,#506,#281,.T.);
#652=EDGE_CURVE('',#535,#500,#282,.T.);
#653=EDGE_CURVE('',#499,#537,#283,.T.);
#654=EDGE_CURVE('',#539,#504,#284,.T.);
#655=EDGE_CURVE('',#540,#539,#285,.T.);
#656=EDGE_CURVE('',#540,#501,#286,.T.);
#657=EDGE_CURVE('',#541,#531,#287,.T.);
#658=EDGE_CURVE('',#541,#542,#288,.T.);
#659=EDGE_CURVE('',#542,#528,#289,.T.);
#660=EDGE_CURVE('',#543,#530,#290,.T.);
#661=EDGE_CURVE('',#543,#541,#291,.T.);
#662=EDGE_CURVE('',#544,#527,#292,.T.);
#663=EDGE_CURVE('',#544,#545,#293,.T.);
#664=EDGE_CURVE('',#545,#524,#294,.T.);
#665=EDGE_CURVE('',#546,#526,#295,.T.);
#666=EDGE_CURVE('',#546,#544,#296,.T.);
#667=EDGE_CURVE('',#547,#523,#297,.T.);
#668=EDGE_CURVE('',#547,#548,#298,.T.);
#669=EDGE_CURVE('',#548,#520,#299,.T.);
#670=EDGE_CURVE('',#549,#522,#300,.T.);
#671=EDGE_CURVE('',#549,#547,#301,.T.);
#672=EDGE_CURVE('',#550,#519,#302,.T.);
#673=EDGE_CURVE('',#550,#551,#303,.T.);
#674=EDGE_CURVE('',#551,#516,#304,.T.);
#675=EDGE_CURVE('',#552,#518,#305,.T.);
#676=EDGE_CURVE('',#552,#550,#306,.T.);
#677=EDGE_CURVE('',#553,#515,#307,.T.);
#678=EDGE_CURVE('',#553,#554,#308,.T.);
#679=EDGE_CURVE('',#554,#512,#309,.T.);
#680=EDGE_CURVE('',#555,#514,#310,.T.);
#681=EDGE_CURVE('',#555,#553,#311,.T.);
#682=EDGE_CURVE('',#556,#511,#312,.T.);
#683=EDGE_CURVE('',#556,#557,#313,.T.);
#684=EDGE_CURVE('',#557,#508,#314,.T.);
#685=EDGE_CURVE('',#558,#510,#315,.T.);
#686=EDGE_CURVE('',#558,#556,#316,.T.);
#687=EDGE_CURVE('',#559,#503,#317,.T.);
#688=EDGE_CURVE('',#559,#539,#318,.T.);
#689=EDGE_CURVE('',#560,#560,#72,.T.);
#690=EDGE_CURVE('',#560,#534,#319,.T.);
#691=EDGE_CURVE('',#561,#561,#73,.T.);
#692=EDGE_CURVE('',#561,#507,#320,.T.);
#693=EDGE_CURVE('',#562,#562,#74,.T.);
#694=EDGE_CURVE('',#562,#533,#321,.T.);
#695=EDGE_CURVE('',#563,#563,#75,.T.);
#696=EDGE_CURVE('',#563,#532,#322,.T.);
#697=EDGE_CURVE('',#564,#517,#323,.T.);
#698=EDGE_CURVE('',#564,#552,#324,.T.);
#699=EDGE_CURVE('',#551,#564,#325,.T.);
#700=EDGE_CURVE('',#565,#509,#326,.T.);
#701=EDGE_CURVE('',#565,#558,#327,.T.);
#702=EDGE_CURVE('',#557,#565,#328,.T.);
#703=EDGE_CURVE('',#566,#513,#329,.T.);
#704=EDGE_CURVE('',#566,#555,#330,.T.);
#705=EDGE_CURVE('',#554,#566,#331,.T.);
#706=EDGE_CURVE('',#567,#525,#332,.T.);
#707=EDGE_CURVE('',#567,#546,#333,.T.);
#708=EDGE_CURVE('',#545,#567,#334,.T.);
#709=EDGE_CURVE('',#568,#521,#335,.T.);
#710=EDGE_CURVE('',#568,#549,#336,.T.);
#711=EDGE_CURVE('',#548,#568,#337,.T.);
#712=EDGE_CURVE('',#569,#529,#338,.T.);
#713=EDGE_CURVE('',#569,#543,#339,.T.);
#714=EDGE_CURVE('',#542,#569,#340,.T.);
#715=EDGE_CURVE('',#540,#570,#341,.T.);
#716=EDGE_CURVE('',#570,#502,#342,.T.);
#717=EDGE_CURVE('',#559,#570,#343,.T.);
#718=ORIENTED_EDGE('',*,*,#571,.T.);
#719=ORIENTED_EDGE('',*,*,#572,.T.);
#720=ORIENTED_EDGE('',*,*,#573,.T.);
#721=ORIENTED_EDGE('',*,*,#574,.T.);
#722=ORIENTED_EDGE('',*,*,#575,.T.);
#723=ORIENTED_EDGE('',*,*,#576,.T.);
#724=ORIENTED_EDGE('',*,*,#577,.T.);
#725=ORIENTED_EDGE('',*,*,#578,.T.);
#726=ORIENTED_EDGE('',*,*,#579,.T.);
#727=ORIENTED_EDGE('',*,*,#580,.T.);
#728=ORIENTED_EDGE('',*,*,#581,.T.);
#729=ORIENTED_EDGE('',*,*,#582,.T.);
#730=ORIENTED_EDGE('',*,*,#583,.F.);
#731=ORIENTED_EDGE('',*,*,#584,.F.);
#732=ORIENTED_EDGE('',*,*,#585,.F.);
#733=ORIENTED_EDGE('',*,*,#586,.F.);
#734=ORIENTED_EDGE('',*,*,#585,.T.);
#735=ORIENTED_EDGE('',*,*,#587,.T.);
#736=ORIENTED_EDGE('',*,*,#580,.F.);
#737=ORIENTED_EDGE('',*,*,#588,.F.);
#738=ORIENTED_EDGE('',*,*,#584,.T.);
#739=ORIENTED_EDGE('',*,*,#589,.T.);
#740=ORIENTED_EDGE('',*,*,#581,.F.);
#741=ORIENTED_EDGE('',*,*,#587,.F.);
#742=ORIENTED_EDGE('',*,*,#582,.F.);
#743=ORIENTED_EDGE('',*,*,#590,.T.);
#744=ORIENTED_EDGE('',*,*,#591,.T.);
#745=ORIENTED_EDGE('',*,*,#590,.F.);
#746=ORIENTED_EDGE('',*,*,#586,.T.);
#747=ORIENTED_EDGE('',*,*,#588,.T.);
#748=ORIENTED_EDGE('',*,*,#579,.F.);
#749=ORIENTED_EDGE('',*,*,#592,.F.);
#750=ORIENTED_EDGE('',*,*,#583,.T.);
#751=ORIENTED_EDGE('',*,*,#592,.T.);
#752=ORIENTED_EDGE('',*,*,#578,.F.);
#753=ORIENTED_EDGE('',*,*,#589,.F.);
#754=ORIENTED_EDGE('',*,*,#577,.F.);
#755=ORIENTED_EDGE('',*,*,#593,.T.);
#756=ORIENTED_EDGE('',*,*,#594,.T.);
#757=ORIENTED_EDGE('',*,*,#593,.F.);
#758=ORIENTED_EDGE('',*,*,#576,.F.);
#759=ORIENTED_EDGE('',*,*,#595,.T.);
#760=ORIENTED_EDGE('',*,*,#596,.T.);
#761=ORIENTED_EDGE('',*,*,#595,.F.);
#762=ORIENTED_EDGE('',*,*,#575,.F.);
#763=ORIENTED_EDGE('',*,*,#597,.T.);
#764=ORIENTED_EDGE('',*,*,#598,.T.);
#765=ORIENTED_EDGE('',*,*,#597,.F.);
#766=ORIENTED_EDGE('',*,*,#599,.T.);
#767=ORIENTED_EDGE('',*,*,#600,.T.);
#768=ORIENTED_EDGE('',*,*,#574,.F.);
#769=ORIENTED_EDGE('',*,*,#601,.F.);
#770=ORIENTED_EDGE('',*,*,#602,.F.);
#771=ORIENTED_EDGE('',*,*,#601,.T.);
#772=ORIENTED_EDGE('',*,*,#573,.F.);
#773=ORIENTED_EDGE('',*,*,#603,.F.);
#774=ORIENTED_EDGE('',*,*,#604,.T.);
#775=ORIENTED_EDGE('',*,*,#603,.T.);
#776=ORIENTED_EDGE('',*,*,#572,.F.);
#777=ORIENTED_EDGE('',*,*,#605,.F.);
#778=ORIENTED_EDGE('',*,*,#606,.F.);
#779=ORIENTED_EDGE('',*,*,#605,.T.);
#780=ORIENTED_EDGE('',*,*,#571,.F.);
#781=ORIENTED_EDGE('',*,*,#600,.F.);
#782=ORIENTED_EDGE('',*,*,#606,.T.);
#783=ORIENTED_EDGE('',*,*,#599,.F.);
#784=ORIENTED_EDGE('',*,*,#602,.T.);
#785=ORIENTED_EDGE('',*,*,#604,.F.);
#786=ORIENTED_EDGE('',*,*,#598,.F.);
#787=ORIENTED_EDGE('',*,*,#596,.F.);
#788=ORIENTED_EDGE('',*,*,#594,.F.);
#789=ORIENTED_EDGE('',*,*,#591,.F.);
#790=ORIENTED_EDGE('',*,*,#607,.F.);
#791=ORIENTED_EDGE('',*,*,#608,.T.);
#792=ORIENTED_EDGE('',*,*,#609,.F.);
#793=ORIENTED_EDGE('',*,*,#608,.F.);
#794=ORIENTED_EDGE('',*,*,#610,.T.);
#795=ORIENTED_EDGE('',*,*,#611,.T.);
#796=ORIENTED_EDGE('',*,*,#612,.T.);
#797=ORIENTED_EDGE('',*,*,#613,.T.);
#798=ORIENTED_EDGE('',*,*,#614,.T.);
#799=ORIENTED_EDGE('',*,*,#615,.T.);
#800=ORIENTED_EDGE('',*,*,#616,.T.);
#801=ORIENTED_EDGE('',*,*,#617,.T.);
#802=ORIENTED_EDGE('',*,*,#618,.T.);
#803=ORIENTED_EDGE('',*,*,#619,.T.);
#804=ORIENTED_EDGE('',*,*,#620,.T.);
#805=ORIENTED_EDGE('',*,*,#621,.T.);
#806=ORIENTED_EDGE('',*,*,#622,.T.);
#807=ORIENTED_EDGE('',*,*,#623,.T.);
#808=ORIENTED_EDGE('',*,*,#624,.T.);
#809=ORIENTED_EDGE('',*,*,#625,.T.);
#810=ORIENTED_EDGE('',*,*,#626,.T.);
#811=ORIENTED_EDGE('',*,*,#627,.T.);
#812=ORIENTED_EDGE('',*,*,#628,.T.);
#813=ORIENTED_EDGE('',*,*,#629,.T.);
#814=ORIENTED_EDGE('',*,*,#630,.T.);
#815=ORIENTED_EDGE('',*,*,#631,.T.);
#816=ORIENTED_EDGE('',*,*,#632,.T.);
#817=ORIENTED_EDGE('',*,*,#633,.T.);
#818=ORIENTED_EDGE('',*,*,#634,.T.);
#819=ORIENTED_EDGE('',*,*,#635,.T.);
#820=ORIENTED_EDGE('',*,*,#636,.T.);
#821=ORIENTED_EDGE('',*,*,#637,.T.);
#822=ORIENTED_EDGE('',*,*,#638,.T.);
#823=ORIENTED_EDGE('',*,*,#639,.T.);
#824=ORIENTED_EDGE('',*,*,#640,.T.);
#825=ORIENTED_EDGE('',*,*,#641,.T.);
#826=ORIENTED_EDGE('',*,*,#642,.T.);
#827=ORIENTED_EDGE('',*,*,#643,.T.);
#828=ORIENTED_EDGE('',*,*,#644,.T.);
#829=ORIENTED_EDGE('',*,*,#645,.T.);
#830=ORIENTED_EDGE('',*,*,#609,.T.);
#831=ORIENTED_EDGE('',*,*,#646,.F.);
#832=ORIENTED_EDGE('',*,*,#647,.T.);
#833=ORIENTED_EDGE('',*,*,#648,.T.);
#834=ORIENTED_EDGE('',*,*,#649,.F.);
#835=ORIENTED_EDGE('',*,*,#650,.F.);
#836=ORIENTED_EDGE('',*,*,#649,.T.);
#837=ORIENTED_EDGE('',*,*,#651,.T.);
#838=ORIENTED_EDGE('',*,*,#616,.F.);
#839=ORIENTED_EDGE('',*,*,#652,.T.);
#840=ORIENTED_EDGE('',*,*,#610,.F.);
#841=ORIENTED_EDGE('',*,*,#653,.T.);
#842=ORIENTED_EDGE('',*,*,#647,.F.);
#843=ORIENTED_EDGE('',*,*,#651,.F.);
#844=ORIENTED_EDGE('',*,*,#648,.F.);
#845=ORIENTED_EDGE('',*,*,#653,.F.);
#846=ORIENTED_EDGE('',*,*,#617,.F.);
#847=ORIENTED_EDGE('',*,*,#652,.F.);
#848=ORIENTED_EDGE('',*,*,#646,.T.);
#849=ORIENTED_EDGE('',*,*,#650,.T.);
#850=ORIENTED_EDGE('',*,*,#615,.F.);
#851=ORIENTED_EDGE('',*,*,#654,.F.);
#852=ORIENTED_EDGE('',*,*,#655,.F.);
#853=ORIENTED_EDGE('',*,*,#656,.T.);
#854=ORIENTED_EDGE('',*,*,#611,.F.);
#855=ORIENTED_EDGE('',*,*,#657,.F.);
#856=ORIENTED_EDGE('',*,*,#658,.T.);
#857=ORIENTED_EDGE('',*,*,#659,.T.);
#858=ORIENTED_EDGE('',*,*,#642,.F.);
#859=ORIENTED_EDGE('',*,*,#660,.F.);
#860=ORIENTED_EDGE('',*,*,#661,.T.);
#861=ORIENTED_EDGE('',*,*,#657,.T.);
#862=ORIENTED_EDGE('',*,*,#641,.F.);
#863=ORIENTED_EDGE('',*,*,#662,.F.);
#864=ORIENTED_EDGE('',*,*,#663,.T.);
#865=ORIENTED_EDGE('',*,*,#664,.T.);
#866=ORIENTED_EDGE('',*,*,#638,.F.);
#867=ORIENTED_EDGE('',*,*,#665,.F.);
#868=ORIENTED_EDGE('',*,*,#666,.T.);
#869=ORIENTED_EDGE('',*,*,#662,.T.);
#870=ORIENTED_EDGE('',*,*,#637,.F.);
#871=ORIENTED_EDGE('',*,*,#667,.F.);
#872=ORIENTED_EDGE('',*,*,#668,.T.);
#873=ORIENTED_EDGE('',*,*,#669,.T.);
#874=ORIENTED_EDGE('',*,*,#634,.F.);
#875=ORIENTED_EDGE('',*,*,#670,.F.);
#876=ORIENTED_EDGE('',*,*,#671,.T.);
#877=ORIENTED_EDGE('',*,*,#667,.T.);
#878=ORIENTED_EDGE('',*,*,#633,.F.);
#879=ORIENTED_EDGE('',*,*,#672,.F.);
#880=ORIENTED_EDGE('',*,*,#673,.T.);
#881=ORIENTED_EDGE('',*,*,#674,.T.);
#882=ORIENTED_EDGE('',*,*,#630,.F.);
#883=ORIENTED_EDGE('',*,*,#675,.F.);
#884=ORIENTED_EDGE('',*,*,#676,.T.);
#885=ORIENTED_EDGE('',*,*,#672,.T.);
#886=ORIENTED_EDGE('',*,*,#629,.F.);
#887=ORIENTED_EDGE('',*,*,#677,.F.);
#888=ORIENTED_EDGE('',*,*,#678,.T.);
#889=ORIENTED_EDGE('',*,*,#679,.T.);
#890=ORIENTED_EDGE('',*,*,#626,.F.);
#891=ORIENTED_EDGE('',*,*,#680,.F.);
#892=ORIENTED_EDGE('',*,*,#681,.T.);
#893=ORIENTED_EDGE('',*,*,#677,.T.);
#894=ORIENTED_EDGE('',*,*,#625,.F.);
#895=ORIENTED_EDGE('',*,*,#682,.F.);
#896=ORIENTED_EDGE('',*,*,#683,.T.);
#897=ORIENTED_EDGE('',*,*,#684,.T.);
#898=ORIENTED_EDGE('',*,*,#622,.F.);
#899=ORIENTED_EDGE('',*,*,#685,.F.);
#900=ORIENTED_EDGE('',*,*,#686,.T.);
#901=ORIENTED_EDGE('',*,*,#682,.T.);
#902=ORIENTED_EDGE('',*,*,#621,.F.);
#903=ORIENTED_EDGE('',*,*,#687,.F.);
#904=ORIENTED_EDGE('',*,*,#688,.T.);
#905=ORIENTED_EDGE('',*,*,#654,.T.);
#906=ORIENTED_EDGE('',*,*,#614,.F.);
#907=ORIENTED_EDGE('',*,*,#689,.F.);
#908=ORIENTED_EDGE('',*,*,#690,.T.);
#909=ORIENTED_EDGE('',*,*,#645,.F.);
#910=ORIENTED_EDGE('',*,*,#690,.F.);
#911=ORIENTED_EDGE('',*,*,#691,.F.);
#912=ORIENTED_EDGE('',*,*,#692,.T.);
#913=ORIENTED_EDGE('',*,*,#618,.F.);
#914=ORIENTED_EDGE('',*,*,#692,.F.);
#915=ORIENTED_EDGE('',*,*,#693,.F.);
#916=ORIENTED_EDGE('',*,*,#694,.T.);
#917=ORIENTED_EDGE('',*,*,#644,.F.);
#918=ORIENTED_EDGE('',*,*,#694,.F.);
#919=ORIENTED_EDGE('',*,*,#695,.F.);
#920=ORIENTED_EDGE('',*,*,#696,.T.);
#921=ORIENTED_EDGE('',*,*,#643,.F.);
#922=ORIENTED_EDGE('',*,*,#696,.F.);
#923=ORIENTED_EDGE('',*,*,#697,.F.);
#924=ORIENTED_EDGE('',*,*,#698,.T.);
#925=ORIENTED_EDGE('',*,*,#675,.T.);
#926=ORIENTED_EDGE('',*,*,#628,.F.);
#927=ORIENTED_EDGE('',*,*,#674,.F.);
#928=ORIENTED_EDGE('',*,*,#699,.T.);
#929=ORIENTED_EDGE('',*,*,#697,.T.);
#930=ORIENTED_EDGE('',*,*,#627,.F.);
#931=ORIENTED_EDGE('',*,*,#700,.F.);
#932=ORIENTED_EDGE('',*,*,#701,.T.);
#933=ORIENTED_EDGE('',*,*,#685,.T.);
#934=ORIENTED_EDGE('',*,*,#620,.F.);
#935=ORIENTED_EDGE('',*,*,#684,.F.);
#936=ORIENTED_EDGE('',*,*,#702,.T.);
#937=ORIENTED_EDGE('',*,*,#700,.T.);
#938=ORIENTED_EDGE('',*,*,#619,.F.);
#939=ORIENTED_EDGE('',*,*,#703,.F.);
#940=ORIENTED_EDGE('',*,*,#704,.T.);
#941=ORIENTED_EDGE('',*,*,#680,.T.);
#942=ORIENTED_EDGE('',*,*,#624,.F.);
#943=ORIENTED_EDGE('',*,*,#679,.F.);
#944=ORIENTED_EDGE('',*,*,#705,.T.);
#945=ORIENTED_EDGE('',*,*,#703,.T.);
#946=ORIENTED_EDGE('',*,*,#623,.F.);
#947=ORIENTED_EDGE('',*,*,#706,.F.);
#948=ORIENTED_EDGE('',*,*,#707,.T.);
#949=ORIENTED_EDGE('',*,*,#665,.T.);
#950=ORIENTED_EDGE('',*,*,#636,.F.);
#951=ORIENTED_EDGE('',*,*,#664,.F.);
#952=ORIENTED_EDGE('',*,*,#708,.T.);
#953=ORIENTED_EDGE('',*,*,#706,.T.);
#954=ORIENTED_EDGE('',*,*,#635,.F.);
#955=ORIENTED_EDGE('',*,*,#709,.F.);
#956=ORIENTED_EDGE('',*,*,#710,.T.);
#957=ORIENTED_EDGE('',*,*,#670,.T.);
#958=ORIENTED_EDGE('',*,*,#632,.F.);
#959=ORIENTED_EDGE('',*,*,#669,.F.);
#960=ORIENTED_EDGE('',*,*,#711,.T.);
#961=ORIENTED_EDGE('',*,*,#709,.T.);
#962=ORIENTED_EDGE('',*,*,#631,.F.);
#963=ORIENTED_EDGE('',*,*,#712,.F.);
#964=ORIENTED_EDGE('',*,*,#713,.T.);
#965=ORIENTED_EDGE('',*,*,#660,.T.);
#966=ORIENTED_EDGE('',*,*,#640,.F.);
#967=ORIENTED_EDGE('',*,*,#659,.F.);
#968=ORIENTED_EDGE('',*,*,#714,.T.);
#969=ORIENTED_EDGE('',*,*,#712,.T.);
#970=ORIENTED_EDGE('',*,*,#639,.F.);
#971=ORIENTED_EDGE('',*,*,#656,.F.);
#972=ORIENTED_EDGE('',*,*,#715,.T.);
#973=ORIENTED_EDGE('',*,*,#716,.T.);
#974=ORIENTED_EDGE('',*,*,#612,.F.);
#975=ORIENTED_EDGE('',*,*,#716,.F.);
#976=ORIENTED_EDGE('',*,*,#717,.F.);
#977=ORIENTED_EDGE('',*,*,#687,.T.);
#978=ORIENTED_EDGE('',*,*,#613,.F.);
#979=ORIENTED_EDGE('',*,*,#717,.T.);
#980=ORIENTED_EDGE('',*,*,#715,.F.);
#981=ORIENTED_EDGE('',*,*,#655,.T.);
#982=ORIENTED_EDGE('',*,*,#688,.F.);
#983=ORIENTED_EDGE('',*,*,#689,.T.);
#984=ORIENTED_EDGE('',*,*,#693,.T.);
#985=ORIENTED_EDGE('',*,*,#695,.T.);
#986=ORIENTED_EDGE('',*,*,#661,.F.);
#987=ORIENTED_EDGE('',*,*,#713,.F.);
#988=ORIENTED_EDGE('',*,*,#714,.F.);
#989=ORIENTED_EDGE('',*,*,#658,.F.);
#990=ORIENTED_EDGE('',*,*,#671,.F.);
#991=ORIENTED_EDGE('',*,*,#710,.F.);
#992=ORIENTED_EDGE('',*,*,#711,.F.);
#993=ORIENTED_EDGE('',*,*,#668,.F.);
#994=ORIENTED_EDGE('',*,*,#666,.F.);
#995=ORIENTED_EDGE('',*,*,#707,.F.);
#996=ORIENTED_EDGE('',*,*,#708,.F.);
#997=ORIENTED_EDGE('',*,*,#663,.F.);
#998=ORIENTED_EDGE('',*,*,#681,.F.);
#999=ORIENTED_EDGE('',*,*,#704,.F.);
#1000=ORIENTED_EDGE('',*,*,#705,.F.);
#1001=ORIENTED_EDGE('',*,*,#678,.F.);
#1002=ORIENTED_EDGE('',*,*,#686,.F.);
#1003=ORIENTED_EDGE('',*,*,#701,.F.);
#1004=ORIENTED_EDGE('',*,*,#702,.F.);
#1005=ORIENTED_EDGE('',*,*,#683,.F.);
#1006=ORIENTED_EDGE('',*,*,#676,.F.);
#1007=ORIENTED_EDGE('',*,*,#698,.F.);
#1008=ORIENTED_EDGE('',*,*,#699,.F.);
#1009=ORIENTED_EDGE('',*,*,#673,.F.);
#1010=ORIENTED_EDGE('',*,*,#691,.T.);
#1011=ORIENTED_EDGE('',*,*,#607,.T.);
#1012=PLANE('',#1126);
#1013=PLANE('',#1131);
#1014=PLANE('',#1132);
#1015=PLANE('',#1133);
#1016=PLANE('',#1136);
#1017=PLANE('',#1137);
#1018=PLANE('',#1144);
#1019=PLANE('',#1145);
#1020=PLANE('',#1146);
#1021=PLANE('',#1147);
#1022=PLANE('',#1148);
#1023=PLANE('',#1152);
#1024=PLANE('',#1157);
#1025=PLANE('',#1158);
#1026=PLANE('',#1159);
#1027=PLANE('',#1160);
#1028=PLANE('',#1161);
#1029=PLANE('',#1162);
#1030=PLANE('',#1163);
#1031=PLANE('',#1164);
#1032=PLANE('',#1165);
#1033=PLANE('',#1166);
#1034=PLANE('',#1167);
#1035=PLANE('',#1168);
#1036=PLANE('',#1169);
#1037=PLANE('',#1170);
#1038=PLANE('',#1171);
#1039=PLANE('',#1172);
#1040=PLANE('',#1173);
#1041=PLANE('',#1174);
#1042=PLANE('',#1183);
#1043=PLANE('',#1184);
#1044=PLANE('',#1185);
#1045=PLANE('',#1186);
#1046=PLANE('',#1187);
#1047=PLANE('',#1188);
#1048=PLANE('',#1189);
#1049=PLANE('',#1190);
#1050=PLANE('',#1191);
#1051=PLANE('',#1192);
#1052=PLANE('',#1193);
#1053=PLANE('',#1194);
#1054=PLANE('',#1195);
#1055=PLANE('',#1196);
#1056=PLANE('',#1197);
#1057=ADVANCED_FACE('',(#76,#27,#28,#29,#30,#31),#1012,.T.);
#1058=ADVANCED_FACE('',(#77),#1013,.T.);
#1059=ADVANCED_FACE('',(#78),#1014,.T.);
#1060=ADVANCED_FACE('',(#79),#1015,.T.);
#1061=ADVANCED_FACE('',(#80),#18,.F.);
#1062=ADVANCED_FACE('',(#81),#1016,.T.);
#1063=ADVANCED_FACE('',(#82),#1017,.T.);
#1064=ADVANCED_FACE('',(#83),#19,.F.);
#1065=ADVANCED_FACE('',(#84),#20,.F.);
#1066=ADVANCED_FACE('',(#85),#21,.F.);
#1067=ADVANCED_FACE('',(#86),#1018,.T.);
#1068=ADVANCED_FACE('',(#87),#1019,.T.);
#1069=ADVANCED_FACE('',(#88),#1020,.T.);
#1070=ADVANCED_FACE('',(#89),#1021,.T.);
#1071=ADVANCED_FACE('',(#90,#32,#33,#34,#35),#1022,.F.);
#1072=ADVANCED_FACE('',(#91),#22,.F.);
#1073=ADVANCED_FACE('',(#92,#36,#37,#38,#39,#40,#41,#42,#43,#44,#45,#46),
#1023,.T.);
#1074=ADVANCED_FACE('',(#93),#1024,.F.);
#1075=ADVANCED_FACE('',(#94),#1025,.F.);
#1076=ADVANCED_FACE('',(#95),#1026,.F.);
#1077=ADVANCED_FACE('',(#96),#1027,.F.);
#1078=ADVANCED_FACE('',(#97),#1028,.T.);
#1079=ADVANCED_FACE('',(#98),#1029,.T.);
#1080=ADVANCED_FACE('',(#99),#1030,.T.);
#1081=ADVANCED_FACE('',(#100),#1031,.T.);
#1082=ADVANCED_FACE('',(#101),#1032,.T.);
#1083=ADVANCED_FACE('',(#102),#1033,.T.);
#1084=ADVANCED_FACE('',(#103),#1034,.T.);
#1085=ADVANCED_FACE('',(#104),#1035,.T.);
#1086=ADVANCED_FACE('',(#105),#1036,.T.);
#1087=ADVANCED_FACE('',(#106),#1037,.T.);
#1088=ADVANCED_FACE('',(#107),#1038,.T.);
#1089=ADVANCED_FACE('',(#108),#1039,.T.);
#1090=ADVANCED_FACE('',(#109),#1040,.T.);
#1091=ADVANCED_FACE('',(#110),#1041,.T.);
#1092=ADVANCED_FACE('',(#111),#23,.F.);
#1093=ADVANCED_FACE('',(#112),#24,.F.);
#1094=ADVANCED_FACE('',(#113),#25,.F.);
#1095=ADVANCED_FACE('',(#114),#26,.F.);
#1096=ADVANCED_FACE('',(#115),#1042,.T.);
#1097=ADVANCED_FACE('',(#116),#1043,.T.);
#1098=ADVANCED_FACE('',(#117),#1044,.T.);
#1099=ADVANCED_FACE('',(#118),#1045,.T.);
#1100=ADVANCED_FACE('',(#119),#1046,.T.);
#1101=ADVANCED_FACE('',(#120),#1047,.T.);
#1102=ADVANCED_FACE('',(#121),#1048,.T.);
#1103=ADVANCED_FACE('',(#122),#1049,.T.);
#1104=ADVANCED_FACE('',(#123),#1050,.T.);
#1105=ADVANCED_FACE('',(#124),#1051,.T.);
#1106=ADVANCED_FACE('',(#125),#1052,.T.);
#1107=ADVANCED_FACE('',(#126),#1053,.T.);
#1108=ADVANCED_FACE('',(#127),#1054,.T.);
#1109=ADVANCED_FACE('',(#128),#1055,.T.);
#1110=ADVANCED_FACE('',(#129,#47,#48,#49,#50,#51,#52,#53,#54,#55,#56,#57),
#1056,.F.);
#1111=CLOSED_SHELL('',(#1057,#1058,#1059,#1060,#1061,#1062,#1063,#1064,
#1065,#1066,#1067,#1068,#1069,#1070,#1071));
#1112=CLOSED_SHELL('',(#1072,#1073,#1074,#1075,#1076,#1077,#1078,#1079,
#1080,#1081,#1082,#1083,#1084,#1085,#1086,#1087,#1088,#1089,#1090,#1091,
#1092,#1093,#1094,#1095,#1096,#1097,#1098,#1099,#1100,#1101,#1102,#1103,
#1104,#1105,#1106,#1107,#1108,#1109,#1110));
#1113=DERIVED_UNIT_ELEMENT(#1115,1.);
#1114=DERIVED_UNIT_ELEMENT(#1778,-3.);
#1115=(
MASS_UNIT()
NAMED_UNIT(*)
SI_UNIT(.KILO.,.GRAM.)
);
#1116=DERIVED_UNIT((#1113,#1114));
#1117=MEASURE_REPRESENTATION_ITEM('density measure',
POSITIVE_RATIO_MEASURE(7850.),#1116);
#1118=PROPERTY_DEFINITION_REPRESENTATION(#1123,#1120);
#1119=PROPERTY_DEFINITION_REPRESENTATION(#1124,#1121);
#1120=REPRESENTATION('material name',(#1122),#1775);
#1121=REPRESENTATION('density',(#1117),#1775);
#1122=DESCRIPTIVE_REPRESENTATION_ITEM('Steel','Steel');
#1123=PROPERTY_DEFINITION('material property','material name',#1785);
#1124=PROPERTY_DEFINITION('material property','density of part',#1785);
#1125=AXIS2_PLACEMENT_3D('',#1473,#1198,#1199);
#1126=AXIS2_PLACEMENT_3D('',#1474,#1200,#1201);
#1127=AXIS2_PLACEMENT_3D('',#1484,#1206,#1207);
#1128=AXIS2_PLACEMENT_3D('',#1486,#1208,#1209);
#1129=AXIS2_PLACEMENT_3D('',#1488,#1210,#1211);
#1130=AXIS2_PLACEMENT_3D('',#1498,#1216,#1217);
#1131=AXIS2_PLACEMENT_3D('',#1499,#1218,#1219);
#1132=AXIS2_PLACEMENT_3D('',#1508,#1224,#1225);
#1133=AXIS2_PLACEMENT_3D('',#1511,#1228,#1229);
#1134=AXIS2_PLACEMENT_3D('',#1513,#1231,#1232);
#1135=AXIS2_PLACEMENT_3D('',#1516,#1234,#1235);
#1136=AXIS2_PLACEMENT_3D('',#1517,#1236,#1237);
#1137=AXIS2_PLACEMENT_3D('',#1519,#1239,#1240);
#1138=AXIS2_PLACEMENT_3D('',#1520,#1241,#1242);
#1139=AXIS2_PLACEMENT_3D('',#1523,#1244,#1245);
#1140=AXIS2_PLACEMENT_3D('',#1524,#1246,#1247);
#1141=AXIS2_PLACEMENT_3D('',#1527,#1249,#1250);
#1142=AXIS2_PLACEMENT_3D('',#1528,#1251,#1252);
#1143=AXIS2_PLACEMENT_3D('',#1531,#1254,#1255);
#1144=AXIS2_PLACEMENT_3D('',#1532,#1256,#1257);
#1145=AXIS2_PLACEMENT_3D('',#1538,#1261,#1262);
#1146=AXIS2_PLACEMENT_3D('',#1542,#1265,#1266);
#1147=AXIS2_PLACEMENT_3D('',#1546,#1269,#1270);
#1148=AXIS2_PLACEMENT_3D('',#1548,#1272,#1273);
#1149=AXIS2_PLACEMENT_3D('',#1549,#1274,#1275);
#1150=AXIS2_PLACEMENT_3D('',#1551,#1276,#1277);
#1151=AXIS2_PLACEMENT_3D('',#1554,#1279,#1280);
#1152=AXIS2_PLACEMENT_3D('',#1555,#1281,#1282);
#1153=AXIS2_PLACEMENT_3D('',#1573,#1291,#1292);
#1154=AXIS2_PLACEMENT_3D('',#1623,#1317,#1318);
#1155=AXIS2_PLACEMENT_3D('',#1625,#1319,#1320);
#1156=AXIS2_PLACEMENT_3D('',#1627,#1321,#1322);
#1157=AXIS2_PLACEMENT_3D('',#1628,#1323,#1324);
#1158=AXIS2_PLACEMENT_3D('',#1637,#1329,#1330);
#1159=AXIS2_PLACEMENT_3D('',#1640,#1333,#1334);
#1160=AXIS2_PLACEMENT_3D('',#1643,#1337,#1338);
#1161=AXIS2_PLACEMENT_3D('',#1644,#1339,#1340);
#1162=AXIS2_PLACEMENT_3D('',#1650,#1344,#1345);
#1163=AXIS2_PLACEMENT_3D('',#1656,#1349,#1350);
#1164=AXIS2_PLACEMENT_3D('',#1660,#1353,#1354);
#1165=AXIS2_PLACEMENT_3D('',#1666,#1358,#1359);
#1166=AXIS2_PLACEMENT_3D('',#1670,#1362,#1363);
#1167=AXIS2_PLACEMENT_3D('',#1676,#1367,#1368);
#1168=AXIS2_PLACEMENT_3D('',#1680,#1371,#1372);
#1169=AXIS2_PLACEMENT_3D('',#1686,#1376,#1377);
#1170=AXIS2_PLACEMENT_3D('',#1690,#1380,#1381);
#1171=AXIS2_PLACEMENT_3D('',#1696,#1385,#1386);
#1172=AXIS2_PLACEMENT_3D('',#1700,#1389,#1390);
#1173=AXIS2_PLACEMENT_3D('',#1706,#1394,#1395);
#1174=AXIS2_PLACEMENT_3D('',#1710,#1398,#1399);
#1175=AXIS2_PLACEMENT_3D('',#1714,#1402,#1403);
#1176=AXIS2_PLACEMENT_3D('',#1716,#1404,#1405);
#1177=AXIS2_PLACEMENT_3D('',#1718,#1407,#1408);
#1178=AXIS2_PLACEMENT_3D('',#1720,#1409,#1410);
#1179=AXIS2_PLACEMENT_3D('',#1722,#1412,#1413);
#1180=AXIS2_PLACEMENT_3D('',#1724,#1414,#1415);
#1181=AXIS2_PLACEMENT_3D('',#1726,#1417,#1418);
#1182=AXIS2_PLACEMENT_3D('',#1728,#1419,#1420);
#1183=AXIS2_PLACEMENT_3D('',#1730,#1422,#1423);
#1184=AXIS2_PLACEMENT_3D('',#1734,#1426,#1427);
#1185=AXIS2_PLACEMENT_3D('',#1736,#1429,#1430);
#1186=AXIS2_PLACEMENT_3D('',#1740,#1433,#1434);
#1187=AXIS2_PLACEMENT_3D('',#1742,#1436,#1437);
#1188=AXIS2_PLACEMENT_3D('',#1746,#1440,#1441);
#1189=AXIS2_PLACEMENT_3D('',#1748,#1443,#1444);
#1190=AXIS2_PLACEMENT_3D('',#1752,#1447,#1448);
#1191=AXIS2_PLACEMENT_3D('',#1754,#1450,#1451);
#1192=AXIS2_PLACEMENT_3D('',#1758,#1454,#1455);
#1193=AXIS2_PLACEMENT_3D('',#1760,#1457,#1458);
#1194=AXIS2_PLACEMENT_3D('',#1764,#1461,#1462);
#1195=AXIS2_PLACEMENT_3D('',#1766,#1464,#1465);
#1196=AXIS2_PLACEMENT_3D('',#1770,#1468,#1469);
#1197=AXIS2_PLACEMENT_3D('',#1772,#1471,#1472);
#1198=DIRECTION('axis',(0.,0.,1.));
#1199=DIRECTION('refdir',(1.,0.,0.));
#1200=DIRECTION('center_axis',(0.,0.,1.));
#1201=DIRECTION('ref_axis',(1.,0.,0.));
#1202=DIRECTION('',(0.,1.,0.));
#1203=DIRECTION('',(-1.,0.,0.));
#1204=DIRECTION('',(0.,-1.,0.));
#1205=DIRECTION('',(1.,0.,0.));
#1206=DIRECTION('center_axis',(0.,0.,-1.));
#1207=DIRECTION('ref_axis',(1.,0.,0.));
#1208=DIRECTION('center_axis',(0.,0.,-1.));
#1209=DIRECTION('ref_axis',(1.,0.,0.));
#1210=DIRECTION('center_axis',(0.,0.,-1.));
#1211=DIRECTION('ref_axis',(1.,0.,0.));
#1212=DIRECTION('',(-1.,0.,0.));
#1213=DIRECTION('',(0.,1.,0.));
#1214=DIRECTION('',(1.,0.,0.));
#1215=DIRECTION('',(0.,-1.,0.));
#1216=DIRECTION('center_axis',(0.,0.,-1.));
#1217=DIRECTION('ref_axis',(1.,0.,0.));
#1218=DIRECTION('center_axis',(0.,0.,1.));
#1219=DIRECTION('ref_axis',(1.,0.,0.));
#1220=DIRECTION('',(-1.,0.,0.));
#1221=DIRECTION('',(0.,-1.,0.));
#1222=DIRECTION('',(1.,0.,0.));
#1223=DIRECTION('',(0.,1.,0.));
#1224=DIRECTION('center_axis',(0.,-1.,0.));
#1225=DIRECTION('ref_axis',(1.,0.,0.));
#1226=DIRECTION('',(0.,0.,1.));
#1227=DIRECTION('',(0.,0.,1.));
#1228=DIRECTION('center_axis',(-1.,0.,0.));
#1229=DIRECTION('ref_axis',(0.,-1.,0.));
#1230=DIRECTION('',(0.,0.,1.));
#1231=DIRECTION('center_axis',(0.,0.,1.));
#1232=DIRECTION('ref_axis',(1.,0.,0.));
#1233=DIRECTION('',(0.,0.,-1.));
#1234=DIRECTION('center_axis',(0.,0.,-1.));
#1235=DIRECTION('ref_axis',(1.,0.,0.));
#1236=DIRECTION('center_axis',(1.,0.,0.));
#1237=DIRECTION('ref_axis',(0.,1.,0.));
#1238=DIRECTION('',(0.,0.,1.));
#1239=DIRECTION('center_axis',(0.,1.,0.));
#1240=DIRECTION('ref_axis',(-1.,0.,0.));
#1241=DIRECTION('center_axis',(0.,0.,1.));
#1242=DIRECTION('ref_axis',(1.,0.,0.));
#1243=DIRECTION('',(0.,0.,-1.));
#1244=DIRECTION('center_axis',(0.,0.,-1.));
#1245=DIRECTION('ref_axis',(1.,0.,0.));
#1246=DIRECTION('center_axis',(0.,0.,1.));
#1247=DIRECTION('ref_axis',(1.,0.,0.));
#1248=DIRECTION('',(0.,0.,-1.));
#1249=DIRECTION('center_axis',(0.,0.,-1.));
#1250=DIRECTION('ref_axis',(1.,0.,0.));
#1251=DIRECTION('center_axis',(0.,0.,1.));
#1252=DIRECTION('ref_axis',(1.,0.,0.));
#1253=DIRECTION('',(0.,0.,-1.));
#1254=DIRECTION('center_axis',(0.,0.,-1.));
#1255=DIRECTION('ref_axis',(1.,0.,0.));
#1256=DIRECTION('center_axis',(0.,-1.,0.));
#1257=DIRECTION('ref_axis',(1.,0.,0.));
#1258=DIRECTION('',(1.,0.,0.));
#1259=DIRECTION('',(0.,0.,1.));
#1260=DIRECTION('',(0.,0.,1.));
#1261=DIRECTION('center_axis',(-1.,0.,0.));
#1262=DIRECTION('ref_axis',(0.,-1.,0.));
#1263=DIRECTION('',(0.,1.,0.));
#1264=DIRECTION('',(0.,0.,1.));
#1265=DIRECTION('center_axis',(0.,1.,0.));
#1266=DIRECTION('ref_axis',(-1.,0.,0.));
#1267=DIRECTION('',(-1.,0.,0.));
#1268=DIRECTION('',(0.,0.,1.));
#1269=DIRECTION('center_axis',(1.,0.,0.));
#1270=DIRECTION('ref_axis',(0.,1.,0.));
#1271=DIRECTION('',(0.,-1.,0.));
#1272=DIRECTION('center_axis',(0.,0.,1.));
#1273=DIRECTION('ref_axis',(1.,0.,0.));
#1274=DIRECTION('center_axis',(0.,0.,1.));
#1275=DIRECTION('ref_axis',(1.,0.,0.));
#1276=DIRECTION('center_axis',(0.,0.,1.));
#1277=DIRECTION('ref_axis',(1.,0.,0.));
#1278=DIRECTION('',(0.,0.,1.));
#1279=DIRECTION('center_axis',(0.,0.,-1.));
#1280=DIRECTION('ref_axis',(1.,0.,0.));
#1281=DIRECTION('center_axis',(0.,0.,1.));
#1282=DIRECTION('ref_axis',(1.,0.,0.));
#1283=DIRECTION('',(-1.,0.,0.));
#1284=DIRECTION('',(0.,-1.,0.));
#1285=DIRECTION('',(1.,0.,0.));
#1286=DIRECTION('',(0.,1.,0.));
#1287=DIRECTION('',(-1.,0.,0.));
#1288=DIRECTION('',(0.,-1.,0.));
#1289=DIRECTION('',(1.,0.,0.));
#1290=DIRECTION('',(0.,-1.,0.));
#1291=DIRECTION('center_axis',(0.,0.,-1.));
#1292=DIRECTION('ref_axis',(1.,0.,0.));
#1293=DIRECTION('',(0.,-1.,0.));
#1294=DIRECTION('',(-1.,0.,0.));
#1295=DIRECTION('',(0.,1.,0.));
#1296=DIRECTION('',(1.,0.,0.));
#1297=DIRECTION('',(1.,0.,0.));
#1298=DIRECTION('',(0.,-1.,0.));
#1299=DIRECTION('',(-1.,0.,0.));
#1300=DIRECTION('',(0.,1.,0.));
#1301=DIRECTION('',(1.,0.,0.));
#1302=DIRECTION('',(0.,-1.,0.));
#1303=DIRECTION('',(-1.,0.,0.));
#1304=DIRECTION('',(0.,1.,0.));
#1305=DIRECTION('',(1.,0.,0.));
#1306=DIRECTION('',(0.,-1.,0.));
#1307=DIRECTION('',(-1.,0.,0.));
#1308=DIRECTION('',(0.,1.,0.));
#1309=DIRECTION('',(1.,0.,0.));
#1310=DIRECTION('',(0.,-1.,0.));
#1311=DIRECTION('',(-1.,0.,0.));
#1312=DIRECTION('',(0.,1.,0.));
#1313=DIRECTION('',(1.,0.,0.));
#1314=DIRECTION('',(0.,-1.,0.));
#1315=DIRECTION('',(-1.,0.,0.));
#1316=DIRECTION('',(0.,1.,0.));
#1317=DIRECTION('center_axis',(0.,0.,-1.));
#1318=DIRECTION('ref_axis',(1.,0.,0.));
#1319=DIRECTION('center_axis',(0.,0.,-1.));
#1320=DIRECTION('ref_axis',(1.,0.,0.));
#1321=DIRECTION('center_axis',(0.,0.,-1.));
#1322=DIRECTION('ref_axis',(1.,0.,0.));
#1323=DIRECTION('center_axis',(0.,0.,-1.));
#1324=DIRECTION('ref_axis',(0.,1.,0.));
#1325=DIRECTION('',(0.,1.,0.));
#1326=DIRECTION('',(1.,0.,0.));
#1327=DIRECTION('',(0.,1.,0.));
#1328=DIRECTION('',(1.,0.,0.));
#1329=DIRECTION('center_axis',(0.,1.,0.));
#1330=DIRECTION('ref_axis',(0.,0.,1.));
#1331=DIRECTION('',(0.,0.,1.));
#1332=DIRECTION('',(0.,0.,1.));
#1333=DIRECTION('center_axis',(0.,-1.,0.));
#1334=DIRECTION('ref_axis',(0.,0.,-1.));
#1335=DIRECTION('',(0.,0.,1.));
#1336=DIRECTION('',(0.,0.,-1.));
#1337=DIRECTION('center_axis',(1.,0.,0.));
#1338=DIRECTION('ref_axis',(0.,0.,-1.));
#1339=DIRECTION('center_axis',(-1.,0.,0.));
#1340=DIRECTION('ref_axis',(0.,-1.,0.));
#1341=DIRECTION('',(0.,0.,1.));
#1342=DIRECTION('',(0.,1.,0.));
#1343=DIRECTION('',(0.,0.,1.));
#1344=DIRECTION('center_axis',(1.,0.,0.));
#1345=DIRECTION('ref_axis',(0.,1.,0.));
#1346=DIRECTION('',(0.,0.,1.));
#1347=DIRECTION('',(0.,1.,0.));
#1348=DIRECTION('',(0.,0.,1.));
#1349=DIRECTION('center_axis',(0.,1.,0.));
#1350=DIRECTION('ref_axis',(-1.,0.,0.));
#1351=DIRECTION('',(0.,0.,1.));
#1352=DIRECTION('',(-1.,0.,0.));
#1353=DIRECTION('center_axis',(1.,0.,0.));
#1354=DIRECTION('ref_axis',(0.,1.,0.));
#1355=DIRECTION('',(0.,0.,1.));
#1356=DIRECTION('',(0.,1.,0.));
#1357=DIRECTION('',(0.,0.,1.));
#1358=DIRECTION('center_axis',(0.,1.,0.));
#1359=DIRECTION('ref_axis',(-1.,0.,0.));
#1360=DIRECTION('',(0.,0.,1.));
#1361=DIRECTION('',(-1.,0.,0.));
#1362=DIRECTION('center_axis',(1.,0.,0.));
#1363=DIRECTION('ref_axis',(0.,1.,0.));
#1364=DIRECTION('',(0.,0.,1.));
#1365=DIRECTION('',(0.,1.,0.));
#1366=DIRECTION('',(0.,0.,1.));
#1367=DIRECTION('center_axis',(0.,1.,0.));
#1368=DIRECTION('ref_axis',(-1.,0.,0.));
#1369=DIRECTION('',(0.,0.,1.));
#1370=DIRECTION('',(-1.,0.,0.));
#1371=DIRECTION('center_axis',(1.,0.,0.));
#1372=DIRECTION('ref_axis',(0.,1.,0.));
#1373=DIRECTION('',(0.,0.,1.));
#1374=DIRECTION('',(0.,1.,0.));
#1375=DIRECTION('',(0.,0.,1.));
#1376=DIRECTION('center_axis',(0.,1.,0.));
#1377=DIRECTION('ref_axis',(-1.,0.,0.));
#1378=DIRECTION('',(0.,0.,1.));
#1379=DIRECTION('',(-1.,0.,0.));
#1380=DIRECTION('center_axis',(1.,0.,0.));
#1381=DIRECTION('ref_axis',(0.,1.,0.));
#1382=DIRECTION('',(0.,0.,1.));
#1383=DIRECTION('',(0.,1.,0.));
#1384=DIRECTION('',(0.,0.,1.));
#1385=DIRECTION('center_axis',(0.,1.,0.));
#1386=DIRECTION('ref_axis',(-1.,0.,0.));
#1387=DIRECTION('',(0.,0.,1.));
#1388=DIRECTION('',(-1.,0.,0.));
#1389=DIRECTION('center_axis',(0.,-1.,0.));
#1390=DIRECTION('ref_axis',(1.,0.,0.));
#1391=DIRECTION('',(0.,0.,1.));
#1392=DIRECTION('',(1.,0.,0.));
#1393=DIRECTION('',(0.,0.,1.));
#1394=DIRECTION('center_axis',(1.,0.,0.));
#1395=DIRECTION('ref_axis',(0.,1.,0.));
#1396=DIRECTION('',(0.,0.,1.));
#1397=DIRECTION('',(0.,1.,0.));
#1398=DIRECTION('center_axis',(0.,1.,0.));
#1399=DIRECTION('ref_axis',(-1.,0.,0.));
#1400=DIRECTION('',(0.,0.,1.));
#1401=DIRECTION('',(-1.,0.,0.));
#1402=DIRECTION('center_axis',(0.,0.,1.));
#1403=DIRECTION('ref_axis',(1.,0.,0.));
#1404=DIRECTION('center_axis',(0.,0.,1.));
#1405=DIRECTION('ref_axis',(1.,0.,0.));
#1406=DIRECTION('',(0.,0.,1.));
#1407=DIRECTION('center_axis',(0.,0.,1.));
#1408=DIRECTION('ref_axis',(1.,0.,0.));
#1409=DIRECTION('center_axis',(0.,0.,1.));
#1410=DIRECTION('ref_axis',(1.,0.,0.));
#1411=DIRECTION('',(0.,0.,1.));
#1412=DIRECTION('center_axis',(0.,0.,1.));
#1413=DIRECTION('ref_axis',(1.,0.,0.));
#1414=DIRECTION('center_axis',(0.,0.,1.));
#1415=DIRECTION('ref_axis',(1.,0.,0.));
#1416=DIRECTION('',(0.,0.,1.));
#1417=DIRECTION('center_axis',(0.,0.,1.));
#1418=DIRECTION('ref_axis',(1.,0.,0.));
#1419=DIRECTION('center_axis',(0.,0.,1.));
#1420=DIRECTION('ref_axis',(1.,0.,0.));
#1421=DIRECTION('',(0.,0.,1.));
#1422=DIRECTION('center_axis',(-1.,0.,0.));
#1423=DIRECTION('ref_axis',(0.,-1.,0.));
#1424=DIRECTION('',(0.,0.,1.));
#1425=DIRECTION('',(0.,-1.,0.));
#1426=DIRECTION('center_axis',(0.,-1.,0.));
#1427=DIRECTION('ref_axis',(1.,0.,0.));
#1428=DIRECTION('',(1.,0.,0.));
#1429=DIRECTION('center_axis',(0.,1.,0.));
#1430=DIRECTION('ref_axis',(-1.,0.,0.));
#1431=DIRECTION('',(0.,0.,1.));
#1432=DIRECTION('',(-1.,0.,0.));
#1433=DIRECTION('center_axis',(-1.,0.,0.));
#1434=DIRECTION('ref_axis',(0.,-1.,0.));
#1435=DIRECTION('',(0.,-1.,0.));
#1436=DIRECTION('center_axis',(-1.,0.,0.));
#1437=DIRECTION('ref_axis',(0.,-1.,0.));
#1438=DIRECTION('',(0.,0.,1.));
#1439=DIRECTION('',(0.,-1.,0.));
#1440=DIRECTION('center_axis',(0.,-1.,0.));
#1441=DIRECTION('ref_axis',(1.,0.,0.));
#1442=DIRECTION('',(1.,0.,0.));
#1443=DIRECTION('center_axis',(-1.,0.,0.));
#1444=DIRECTION('ref_axis',(0.,-1.,0.));
#1445=DIRECTION('',(0.,0.,1.));
#1446=DIRECTION('',(0.,-1.,0.));
#1447=DIRECTION('center_axis',(0.,-1.,0.));
#1448=DIRECTION('ref_axis',(1.,0.,0.));
#1449=DIRECTION('',(1.,0.,0.));
#1450=DIRECTION('center_axis',(-1.,0.,0.));
#1451=DIRECTION('ref_axis',(0.,-1.,0.));
#1452=DIRECTION('',(0.,0.,1.));
#1453=DIRECTION('',(0.,-1.,0.));
#1454=DIRECTION('center_axis',(0.,-1.,0.));
#1455=DIRECTION('ref_axis',(1.,0.,0.));
#1456=DIRECTION('',(1.,0.,0.));
#1457=DIRECTION('center_axis',(-1.,0.,0.));
#1458=DIRECTION('ref_axis',(0.,-1.,0.));
#1459=DIRECTION('',(0.,0.,1.));
#1460=DIRECTION('',(0.,-1.,0.));
#1461=DIRECTION('center_axis',(0.,-1.,0.));
#1462=DIRECTION('ref_axis',(1.,0.,0.));
#1463=DIRECTION('',(1.,0.,0.));
#1464=DIRECTION('center_axis',(0.,-1.,0.));
#1465=DIRECTION('ref_axis',(1.,0.,0.));
#1466=DIRECTION('',(1.,0.,0.));
#1467=DIRECTION('',(0.,0.,1.));
#1468=DIRECTION('center_axis',(1.,0.,0.));
#1469=DIRECTION('ref_axis',(0.,1.,0.));
#1470=DIRECTION('',(0.,-1.,0.));
#1471=DIRECTION('center_axis',(0.,0.,1.));
#1472=DIRECTION('ref_axis',(1.,0.,0.));
#1473=CARTESIAN_POINT('',(0.,0.,0.));
#1474=CARTESIAN_POINT('Origin',(-62.5018093467972,48.8336306786097,13.));
#1475=CARTESIAN_POINT('',(-9.80180934679719,14.8336306786097,13.));
#1476=CARTESIAN_POINT('',(-9.80180934679719,82.8336306786097,13.));
#1477=CARTESIAN_POINT('',(-9.80180934679719,19.8336306786097,13.));
#1478=CARTESIAN_POINT('',(-115.201809346797,82.8336306786097,13.));
#1479=CARTESIAN_POINT('',(-9.80180934679719,82.8336306786097,13.));
#1480=CARTESIAN_POINT('',(-115.201809346797,14.8336306786097,13.));
#1481=CARTESIAN_POINT('',(-115.201809346797,77.8336306786097,13.));
#1482=CARTESIAN_POINT('',(-115.201809346797,14.8336306786097,13.));
#1483=CARTESIAN_POINT('',(-111.651809346797,19.8336306786097,13.));
#1484=CARTESIAN_POINT('Origin',(-110.201809346797,19.8336306786097,13.));
#1485=CARTESIAN_POINT('',(-16.2518093467972,19.8336306786097,13.));
#1486=CARTESIAN_POINT('Origin',(-14.8018093467972,19.8336306786097,13.));
#1487=CARTESIAN_POINT('',(-16.2518093467972,77.8336306786097,13.));
#1488=CARTESIAN_POINT('Origin',(-14.8018093467972,77.8336306786097,13.));
#1489=CARTESIAN_POINT('',(-19.3093232299341,24.523913006513,13.));
#1490=CARTESIAN_POINT('',(-104.709323229934,24.523913006513,13.));
#1491=CARTESIAN_POINT('',(-19.3093232299341,24.523913006513,13.));
#1492=CARTESIAN_POINT('',(-104.709323229934,72.523913006513,13.));
#1493=CARTESIAN_POINT('',(-104.709323229934,24.523913006513,13.));
#1494=CARTESIAN_POINT('',(-19.3093232299341,72.523913006513,13.));
#1495=CARTESIAN_POINT('',(-104.709323229934,72.523913006513,13.));
#1496=CARTESIAN_POINT('',(-19.3093232299341,72.523913006513,13.));
#1497=CARTESIAN_POINT('',(-111.651809346797,77.8336306786097,13.));
#1498=CARTESIAN_POINT('Origin',(-110.201809346797,77.8336306786097,13.));
#1499=CARTESIAN_POINT('Origin',(-62.0093232299341,48.523913006513,3.));
#1500=CARTESIAN_POINT('',(-19.3093232299341,24.523913006513,3.));
#1501=CARTESIAN_POINT('',(-104.709323229934,24.523913006513,3.));
#1502=CARTESIAN_POINT('',(-40.6593232299341,24.523913006513,3.));
#1503=CARTESIAN_POINT('',(-19.3093232299341,72.523913006513,3.));
#1504=CARTESIAN_POINT('',(-19.3093232299341,60.523913006513,3.));
#1505=CARTESIAN_POINT('',(-104.709323229934,72.523913006513,3.));
#1506=CARTESIAN_POINT('',(-83.3593232299341,72.523913006513,3.));
#1507=CARTESIAN_POINT('',(-104.709323229934,36.523913006513,3.));
#1508=CARTESIAN_POINT('Origin',(-104.709323229934,72.523913006513,0.));
#1509=CARTESIAN_POINT('',(-19.3093232299341,72.523913006513,0.));
#1510=CARTESIAN_POINT('',(-104.709323229934,72.523913006513,0.));
#1511=CARTESIAN_POINT('Origin',(-19.3093232299341,72.523913006513,0.));
#1512=CARTESIAN_POINT('',(-19.3093232299341,24.523913006513,0.));
#1513=CARTESIAN_POINT('Origin',(-110.201809346797,77.8336306786097,0.));
#1514=CARTESIAN_POINT('',(-111.651809346797,77.8336306786097,0.));
#1515=CARTESIAN_POINT('',(-111.651809346797,77.8336306786097,0.));
#1516=CARTESIAN_POINT('Origin',(-110.201809346797,77.8336306786097,0.));
#1517=CARTESIAN_POINT('Origin',(-104.709323229934,24.523913006513,0.));
#1518=CARTESIAN_POINT('',(-104.709323229934,24.523913006513,0.));
#1519=CARTESIAN_POINT('Origin',(-19.3093232299341,24.523913006513,0.));
#1520=CARTESIAN_POINT('Origin',(-14.8018093467972,77.8336306786097,0.));
#1521=CARTESIAN_POINT('',(-16.2518093467972,77.8336306786097,0.));
#1522=CARTESIAN_POINT('',(-16.2518093467972,77.8336306786097,0.));
#1523=CARTESIAN_POINT('Origin',(-14.8018093467972,77.8336306786097,0.));
#1524=CARTESIAN_POINT('Origin',(-14.8018093467972,19.8336306786097,0.));
#1525=CARTESIAN_POINT('',(-16.2518093467972,19.8336306786097,0.));
#1526=CARTESIAN_POINT('',(-16.2518093467972,19.8336306786097,0.));
#1527=CARTESIAN_POINT('Origin',(-14.8018093467972,19.8336306786097,0.));
#1528=CARTESIAN_POINT('Origin',(-110.201809346797,19.8336306786097,0.));
#1529=CARTESIAN_POINT('',(-111.651809346797,19.8336306786097,0.));
#1530=CARTESIAN_POINT('',(-111.651809346797,19.8336306786097,0.));
#1531=CARTESIAN_POINT('Origin',(-110.201809346797,19.8336306786097,0.));
#1532=CARTESIAN_POINT('Origin',(-115.201809346797,14.8336306786097,0.));
#1533=CARTESIAN_POINT('',(-115.201809346797,14.8336306786097,0.));
#1534=CARTESIAN_POINT('',(-9.80180934679719,14.8336306786097,0.));
#1535=CARTESIAN_POINT('',(-115.201809346797,14.8336306786097,0.));
#1536=CARTESIAN_POINT('',(-9.80180934679719,14.8336306786097,0.));
#1537=CARTESIAN_POINT('',(-115.201809346797,14.8336306786097,0.));
#1538=CARTESIAN_POINT('Origin',(-115.201809346797,82.8336306786097,0.));
#1539=CARTESIAN_POINT('',(-115.201809346797,82.8336306786097,0.));
#1540=CARTESIAN_POINT('',(-115.201809346797,77.8336306786097,0.));
#1541=CARTESIAN_POINT('',(-115.201809346797,82.8336306786097,0.));
#1542=CARTESIAN_POINT('Origin',(-9.80180934679719,82.8336306786097,0.));
#1543=CARTESIAN_POINT('',(-9.80180934679719,82.8336306786097,0.));
#1544=CARTESIAN_POINT('',(-9.80180934679719,82.8336306786097,0.));
#1545=CARTESIAN_POINT('',(-9.80180934679719,82.8336306786097,0.));
#1546=CARTESIAN_POINT('Origin',(-9.80180934679719,14.8336306786097,0.));
#1547=CARTESIAN_POINT('',(-9.80180934679719,19.8336306786097,0.));
#1548=CARTESIAN_POINT('Origin',(-62.5018093467972,48.8336306786097,0.));
#1549=CARTESIAN_POINT('Origin',(-29.9092534156868,60.3989968924671,0.));
#1550=CARTESIAN_POINT('',(-37.4092534156868,60.3989968924671,0.));
#1551=CARTESIAN_POINT('Origin',(-29.9092534156868,60.3989968924671,0.));
#1552=CARTESIAN_POINT('',(-37.4092534156868,60.3989968924671,16.));
#1553=CARTESIAN_POINT('',(-37.4092534156868,60.3989968924671,0.));
#1554=CARTESIAN_POINT('Origin',(-29.9092534156868,60.3989968924671,16.));
#1555=CARTESIAN_POINT('Origin',(-62.584825433356,48.9769199264583,16.));
#1556=CARTESIAN_POINT('',(-105.712169155612,37.4542177198951,16.));
#1557=CARTESIAN_POINT('',(-115.284825433356,37.4542177198951,16.));
#1558=CARTESIAN_POINT('',(-89.148497294484,37.4542177198951,16.));
#1559=CARTESIAN_POINT('',(-115.284825433356,14.9769199264583,16.));
#1560=CARTESIAN_POINT('',(-115.284825433356,65.9769199264583,16.));
#1561=CARTESIAN_POINT('',(-9.88482543335596,14.9769199264583,16.));
#1562=CARTESIAN_POINT('',(-88.934825433356,14.9769199264583,16.));
#1563=CARTESIAN_POINT('',(-9.88482543335596,82.9769199264583,16.));
#1564=CARTESIAN_POINT('',(-9.88482543335596,31.9769199264583,16.));
#1565=CARTESIAN_POINT('',(-115.284825433356,82.9769199264583,16.));
#1566=CARTESIAN_POINT('',(-36.234825433356,82.9769199264583,16.));
#1567=CARTESIAN_POINT('',(-115.284825433356,64.4494567412379,16.));
#1568=CARTESIAN_POINT('',(-115.284825433356,65.9769199264583,16.));
#1569=CARTESIAN_POINT('',(-105.712169155612,64.4494567412379,16.));
#1570=CARTESIAN_POINT('',(-89.148497294484,64.4494567412379,16.));
#1571=CARTESIAN_POINT('',(-105.712169155612,49.9643785785124,16.));
#1572=CARTESIAN_POINT('',(-16.3412496984174,19.9741007819491,16.));
#1573=CARTESIAN_POINT('Origin',(-14.8912496984174,19.9741007819491,16.));
#1574=CARTESIAN_POINT('',(-84.4883647696843,46.9081877569214,16.));
#1575=CARTESIAN_POINT('',(-84.4883647696843,27.3031877569214,16.));
#1576=CARTESIAN_POINT('',(-84.4883647696843,47.9425538416898,16.));
#1577=CARTESIAN_POINT('',(-104.093364769684,27.3031877569214,16.));
#1578=CARTESIAN_POINT('',(-73.5365951015201,27.3031877569214,16.));
#1579=CARTESIAN_POINT('',(-104.093364769684,46.9081877569214,16.));
#1580=CARTESIAN_POINT('',(-104.093364769684,38.1400538416899,16.));
#1581=CARTESIAN_POINT('',(-83.3390951015201,46.9081877569214,16.));
#1582=CARTESIAN_POINT('',(-104.424491443296,69.0514679366662,16.));
#1583=CARTESIAN_POINT('',(-84.8194914432959,69.0514679366662,16.));
#1584=CARTESIAN_POINT('',(-83.5046584383259,69.0514679366662,16.));
#1585=CARTESIAN_POINT('',(-84.8194914432959,49.4464679366662,16.));
#1586=CARTESIAN_POINT('',(-84.8194914432959,59.0141939315622,16.));
#1587=CARTESIAN_POINT('',(-104.424491443296,49.4464679366662,16.));
#1588=CARTESIAN_POINT('',(-73.7021584383259,49.4464679366662,16.));
#1589=CARTESIAN_POINT('',(-104.424491443296,49.2116939315622,16.));
#1590=CARTESIAN_POINT('',(-59.4587016019533,69.3278386629933,16.));
#1591=CARTESIAN_POINT('',(-39.8537016019533,69.3278386629933,16.));
#1592=CARTESIAN_POINT('',(-61.0217635176546,69.3278386629933,16.));
#1593=CARTESIAN_POINT('',(-39.8537016019533,49.7228386629934,16.));
#1594=CARTESIAN_POINT('',(-39.8537016019533,59.1523792947258,16.));
#1595=CARTESIAN_POINT('',(-59.4587016019533,49.7228386629934,16.));
#1596=CARTESIAN_POINT('',(-51.2192635176546,49.7228386629934,16.));
#1597=CARTESIAN_POINT('',(-59.4587016019533,49.3498792947258,16.));
#1598=CARTESIAN_POINT('',(-81.641191381524,46.7700023937579,16.));
#1599=CARTESIAN_POINT('',(-62.036191381524,46.7700023937579,16.));
#1600=CARTESIAN_POINT('',(-72.11300840744,46.7700023937579,16.));
#1601=CARTESIAN_POINT('',(-62.036191381524,27.1650023937578,16.));
#1602=CARTESIAN_POINT('',(-62.036191381524,47.8734611601081,16.));
#1603=CARTESIAN_POINT('',(-81.641191381524,27.1650023937578,16.));
#1604=CARTESIAN_POINT('',(-62.31050840744,27.1650023937578,16.));
#1605=CARTESIAN_POINT('',(-81.641191381524,38.0709611601081,16.));
#1606=CARTESIAN_POINT('',(-59.2787866935214,46.7672459064248,16.));
#1607=CARTESIAN_POINT('',(-39.6737866935214,46.7672459064248,16.));
#1608=CARTESIAN_POINT('',(-60.9318060634387,46.7672459064248,16.));
#1609=CARTESIAN_POINT('',(-39.6737866935214,27.1622459064247,16.));
#1610=CARTESIAN_POINT('',(-39.6737866935214,47.8720829164415,16.));
#1611=CARTESIAN_POINT('',(-59.2787866935214,27.1622459064247,16.));
#1612=CARTESIAN_POINT('',(-51.1293060634387,27.1622459064247,16.));
#1613=CARTESIAN_POINT('',(-59.2787866935214,38.0695829164415,16.));
#1614=CARTESIAN_POINT('',(-81.8538306289294,69.3278386629933,16.));
#1615=CARTESIAN_POINT('',(-62.2488306289294,69.3278386629933,16.));
#1616=CARTESIAN_POINT('',(-72.2193280311427,69.3278386629933,16.));
#1617=CARTESIAN_POINT('',(-62.2488306289294,49.7228386629934,16.));
#1618=CARTESIAN_POINT('',(-62.2488306289294,59.1523792947258,16.));
#1619=CARTESIAN_POINT('',(-81.8538306289294,49.7228386629934,16.));
#1620=CARTESIAN_POINT('',(-62.4168280311427,49.7228386629934,16.));
#1621=CARTESIAN_POINT('',(-81.8538306289294,49.3498792947258,16.));
#1622=CARTESIAN_POINT('',(-111.741247342544,19.9741007819491,16.));
#1623=CARTESIAN_POINT('Origin',(-110.291247342544,19.9741007819491,16.));
#1624=CARTESIAN_POINT('',(-111.719558351807,77.9655795426433,16.));
#1625=CARTESIAN_POINT('Origin',(-110.269558351807,77.9655795426433,16.));
#1626=CARTESIAN_POINT('',(-16.3625500706578,77.9541034855857,16.));
#1627=CARTESIAN_POINT('Origin',(-14.9125500706578,77.9541034855857,16.));
#1628=CARTESIAN_POINT('Origin',(-115.712169155612,37.4542177198951,1.17050895307899));
#1629=CARTESIAN_POINT('',(-115.284825433356,37.4542177198951,1.17050895307899));
#1630=CARTESIAN_POINT('',(-115.284825433356,64.4494567412379,1.17050895307899));
#1631=CARTESIAN_POINT('',(-115.284825433356,60.2155688231767,1.17050895307899));
#1632=CARTESIAN_POINT('',(-105.712169155612,37.4542177198951,1.17050895307899));
#1633=CARTESIAN_POINT('',(-115.712169155612,37.4542177198951,1.17050895307899));
#1634=CARTESIAN_POINT('',(-105.712169155612,64.4494567412379,1.17050895307899));
#1635=CARTESIAN_POINT('',(-105.712169155612,37.4542177198951,1.17050895307899));
#1636=CARTESIAN_POINT('',(-115.712169155612,64.4494567412379,1.17050895307899));
#1637=CARTESIAN_POINT('Origin',(-115.712169155612,64.4494567412379,1.17050895307899));
#1638=CARTESIAN_POINT('',(-115.284825433356,64.4494567412379,3.));
#1639=CARTESIAN_POINT('',(-105.712169155612,64.4494567412379,3.));
#1640=CARTESIAN_POINT('Origin',(-115.712169155612,37.4542177198951,7.67140324801463));
#1641=CARTESIAN_POINT('',(-115.284825433356,37.4542177198951,3.));
#1642=CARTESIAN_POINT('',(-105.712169155612,37.4542177198951,7.67140324801463));
#1643=CARTESIAN_POINT('Origin',(-105.712169155612,50.9518372305665,4.42095610054681));
#1644=CARTESIAN_POINT('Origin',(-115.284825433356,82.9769199264583,0.));
#1645=CARTESIAN_POINT('',(-115.284825433356,82.9769199264583,0.));
#1646=CARTESIAN_POINT('',(-115.284825433356,82.9769199264583,3.));
#1647=CARTESIAN_POINT('',(-115.284825433356,14.9769199264583,0.));
#1648=CARTESIAN_POINT('',(-115.284825433356,72.9769199264583,0.));
#1649=CARTESIAN_POINT('',(-115.284825433356,14.9769199264583,0.));
#1650=CARTESIAN_POINT('Origin',(-81.8538306289294,49.7228386629934,0.));
#1651=CARTESIAN_POINT('',(-81.8538306289294,49.7228386629934,0.));
#1652=CARTESIAN_POINT('',(-81.8538306289294,49.7228386629934,3.));
#1653=CARTESIAN_POINT('',(-81.8538306289294,69.3278386629933,0.));
#1654=CARTESIAN_POINT('',(-81.8538306289294,49.7228386629934,0.));
#1655=CARTESIAN_POINT('',(-81.8538306289294,69.3278386629933,0.));
#1656=CARTESIAN_POINT('Origin',(-62.2488306289294,49.7228386629934,0.));
#1657=CARTESIAN_POINT('',(-62.2488306289294,49.7228386629934,0.));
#1658=CARTESIAN_POINT('',(-62.2488306289294,49.7228386629934,0.));
#1659=CARTESIAN_POINT('',(-62.2488306289294,49.7228386629934,0.));
#1660=CARTESIAN_POINT('Origin',(-59.2787866935214,27.1622459064247,0.));
#1661=CARTESIAN_POINT('',(-59.2787866935214,27.1622459064247,0.));
#1662=CARTESIAN_POINT('',(-59.2787866935214,27.1622459064247,3.));
#1663=CARTESIAN_POINT('',(-59.2787866935214,46.7672459064248,0.));
#1664=CARTESIAN_POINT('',(-59.2787866935214,27.1622459064247,0.));
#1665=CARTESIAN_POINT('',(-59.2787866935214,46.7672459064248,0.));
#1666=CARTESIAN_POINT('Origin',(-39.6737866935214,27.1622459064247,0.));
#1667=CARTESIAN_POINT('',(-39.6737866935214,27.1622459064247,0.));
#1668=CARTESIAN_POINT('',(-39.6737866935214,27.1622459064247,0.));
#1669=CARTESIAN_POINT('',(-39.6737866935214,27.1622459064247,0.));
#1670=CARTESIAN_POINT('Origin',(-81.641191381524,27.1650023937578,0.));
#1671=CARTESIAN_POINT('',(-81.641191381524,27.1650023937578,0.));
#1672=CARTESIAN_POINT('',(-81.641191381524,27.1650023937578,3.));
#1673=CARTESIAN_POINT('',(-81.641191381524,46.7700023937579,0.));
#1674=CARTESIAN_POINT('',(-81.641191381524,27.1650023937578,0.));
#1675=CARTESIAN_POINT('',(-81.641191381524,46.7700023937579,0.));
#1676=CARTESIAN_POINT('Origin',(-62.036191381524,27.1650023937578,0.));
#1677=CARTESIAN_POINT('',(-62.036191381524,27.1650023937578,0.));
#1678=CARTESIAN_POINT('',(-62.036191381524,27.1650023937578,0.));
#1679=CARTESIAN_POINT('',(-62.036191381524,27.1650023937578,0.));
#1680=CARTESIAN_POINT('Origin',(-59.4587016019533,49.7228386629934,0.));
#1681=CARTESIAN_POINT('',(-59.4587016019533,49.7228386629934,0.));
#1682=CARTESIAN_POINT('',(-59.4587016019533,49.7228386629934,3.));
#1683=CARTESIAN_POINT('',(-59.4587016019533,69.3278386629933,0.));
#1684=CARTESIAN_POINT('',(-59.4587016019533,49.7228386629934,0.));
#1685=CARTESIAN_POINT('',(-59.4587016019533,69.3278386629933,0.));
#1686=CARTESIAN_POINT('Origin',(-39.8537016019533,49.7228386629934,0.));
#1687=CARTESIAN_POINT('',(-39.8537016019533,49.7228386629934,0.));
#1688=CARTESIAN_POINT('',(-39.8537016019533,49.7228386629934,0.));
#1689=CARTESIAN_POINT('',(-39.8537016019533,49.7228386629934,0.));
#1690=CARTESIAN_POINT('Origin',(-104.424491443296,49.4464679366662,0.));
#1691=CARTESIAN_POINT('',(-104.424491443296,49.4464679366662,0.));
#1692=CARTESIAN_POINT('',(-104.424491443296,49.4464679366662,3.));
#1693=CARTESIAN_POINT('',(-104.424491443296,69.0514679366662,0.));
#1694=CARTESIAN_POINT('',(-104.424491443296,49.4464679366662,0.));
#1695=CARTESIAN_POINT('',(-104.424491443296,69.0514679366662,0.));
#1696=CARTESIAN_POINT('Origin',(-84.8194914432959,49.4464679366662,0.));
#1697=CARTESIAN_POINT('',(-84.8194914432959,49.4464679366662,0.));
#1698=CARTESIAN_POINT('',(-84.8194914432959,49.4464679366662,0.));
#1699=CARTESIAN_POINT('',(-84.8194914432959,49.4464679366662,0.));
#1700=CARTESIAN_POINT('Origin',(-104.093364769684,46.9081877569214,0.));
#1701=CARTESIAN_POINT('',(-104.093364769684,46.9081877569214,0.));
#1702=CARTESIAN_POINT('',(-104.093364769684,46.9081877569214,3.));
#1703=CARTESIAN_POINT('',(-84.4883647696843,46.9081877569214,0.));
#1704=CARTESIAN_POINT('',(-84.4883647696843,46.9081877569214,0.));
#1705=CARTESIAN_POINT('',(-84.4883647696843,46.9081877569214,0.));
#1706=CARTESIAN_POINT('Origin',(-104.093364769684,27.3031877569214,0.));
#1707=CARTESIAN_POINT('',(-104.093364769684,27.3031877569214,0.));
#1708=CARTESIAN_POINT('',(-104.093364769684,27.3031877569214,0.));
#1709=CARTESIAN_POINT('',(-104.093364769684,46.9081877569214,0.));
#1710=CARTESIAN_POINT('Origin',(-9.88482543335596,82.9769199264583,0.));
#1711=CARTESIAN_POINT('',(-9.88482543335596,82.9769199264583,0.));
#1712=CARTESIAN_POINT('',(-9.88482543335596,82.9769199264583,0.));
#1713=CARTESIAN_POINT('',(-9.88482543335596,82.9769199264583,0.));
#1714=CARTESIAN_POINT('Origin',(-14.9125500706578,77.9541034855857,0.));
#1715=CARTESIAN_POINT('',(-16.3625500706578,77.9541034855857,0.));
#1716=CARTESIAN_POINT('Origin',(-14.9125500706578,77.9541034855857,0.));
#1717=CARTESIAN_POINT('',(-16.3625500706578,77.9541034855857,0.));
#1718=CARTESIAN_POINT('Origin',(-14.8912496984174,19.9741007819491,0.));
#1719=CARTESIAN_POINT('',(-16.3412496984174,19.9741007819491,0.));
#1720=CARTESIAN_POINT('Origin',(-14.8912496984174,19.9741007819491,0.));
#1721=CARTESIAN_POINT('',(-16.3412496984174,19.9741007819491,0.));
#1722=CARTESIAN_POINT('Origin',(-110.269558351807,77.9655795426433,0.));
#1723=CARTESIAN_POINT('',(-111.719558351807,77.9655795426433,0.));
#1724=CARTESIAN_POINT('Origin',(-110.269558351807,77.9655795426433,0.));
#1725=CARTESIAN_POINT('',(-111.719558351807,77.9655795426433,0.));
#1726=CARTESIAN_POINT('Origin',(-110.291247342544,19.9741007819491,0.));
#1727=CARTESIAN_POINT('',(-111.741247342544,19.9741007819491,0.));
#1728=CARTESIAN_POINT('Origin',(-110.291247342544,19.9741007819491,0.));
#1729=CARTESIAN_POINT('',(-111.741247342544,19.9741007819491,0.));
#1730=CARTESIAN_POINT('Origin',(-39.8537016019533,69.3278386629933,0.));
#1731=CARTESIAN_POINT('',(-39.8537016019533,69.3278386629933,0.));
#1732=CARTESIAN_POINT('',(-39.8537016019533,69.3278386629933,0.));
#1733=CARTESIAN_POINT('',(-39.8537016019533,69.3278386629933,0.));
#1734=CARTESIAN_POINT('Origin',(-59.4587016019533,69.3278386629933,0.));
#1735=CARTESIAN_POINT('',(-59.4587016019533,69.3278386629933,0.));
#1736=CARTESIAN_POINT('Origin',(-84.4883647696843,27.3031877569214,0.));
#1737=CARTESIAN_POINT('',(-84.4883647696843,27.3031877569214,0.));
#1738=CARTESIAN_POINT('',(-84.4883647696843,27.3031877569214,0.));
#1739=CARTESIAN_POINT('',(-104.093364769684,27.3031877569214,0.));
#1740=CARTESIAN_POINT('Origin',(-84.4883647696843,46.9081877569214,0.));
#1741=CARTESIAN_POINT('',(-84.4883647696843,27.3031877569214,0.));
#1742=CARTESIAN_POINT('Origin',(-84.8194914432959,69.0514679366662,0.));
#1743=CARTESIAN_POINT('',(-84.8194914432959,69.0514679366662,0.));
#1744=CARTESIAN_POINT('',(-84.8194914432959,69.0514679366662,0.));
#1745=CARTESIAN_POINT('',(-84.8194914432959,69.0514679366662,0.));
#1746=CARTESIAN_POINT('Origin',(-104.424491443296,69.0514679366662,0.));
#1747=CARTESIAN_POINT('',(-104.424491443296,69.0514679366662,0.));
#1748=CARTESIAN_POINT('Origin',(-39.6737866935214,46.7672459064248,0.));
#1749=CARTESIAN_POINT('',(-39.6737866935214,46.7672459064248,0.));
#1750=CARTESIAN_POINT('',(-39.6737866935214,46.7672459064248,0.));
#1751=CARTESIAN_POINT('',(-39.6737866935214,46.7672459064248,0.));
#1752=CARTESIAN_POINT('Origin',(-59.2787866935214,46.7672459064248,0.));
#1753=CARTESIAN_POINT('',(-59.2787866935214,46.7672459064248,0.));
#1754=CARTESIAN_POINT('Origin',(-62.036191381524,46.7700023937579,0.));
#1755=CARTESIAN_POINT('',(-62.036191381524,46.7700023937579,0.));
#1756=CARTESIAN_POINT('',(-62.036191381524,46.7700023937579,0.));
#1757=CARTESIAN_POINT('',(-62.036191381524,46.7700023937579,0.));
#1758=CARTESIAN_POINT('Origin',(-81.641191381524,46.7700023937579,0.));
#1759=CARTESIAN_POINT('',(-81.641191381524,46.7700023937579,0.));
#1760=CARTESIAN_POINT('Origin',(-62.2488306289294,69.3278386629933,0.));
#1761=CARTESIAN_POINT('',(-62.2488306289294,69.3278386629933,0.));
#1762=CARTESIAN_POINT('',(-62.2488306289294,69.3278386629933,0.));
#1763=CARTESIAN_POINT('',(-62.2488306289294,69.3278386629933,0.));
#1764=CARTESIAN_POINT('Origin',(-81.8538306289294,69.3278386629933,0.));
#1765=CARTESIAN_POINT('',(-81.8538306289294,69.3278386629933,0.));
#1766=CARTESIAN_POINT('Origin',(-115.284825433356,14.9769199264583,0.));
#1767=CARTESIAN_POINT('',(-9.88482543335596,14.9769199264583,0.));
#1768=CARTESIAN_POINT('',(-115.284825433356,14.9769199264583,0.));
#1769=CARTESIAN_POINT('',(-9.88482543335596,14.9769199264583,0.));
#1770=CARTESIAN_POINT('Origin',(-9.88482543335596,14.9769199264583,0.));
#1771=CARTESIAN_POINT('',(-9.88482543335596,24.9769199264583,0.));
#1772=CARTESIAN_POINT('Origin',(-62.584825433356,48.9769199264583,0.));
#1773=UNCERTAINTY_MEASURE_WITH_UNIT(LENGTH_MEASURE(0.01),#1777,
'DISTANCE_ACCURACY_VALUE',
'Maximum model space distance between geometric entities at asserted c
onnectivities');
#1774=UNCERTAINTY_MEASURE_WITH_UNIT(LENGTH_MEASURE(0.01),#1777,
'DISTANCE_ACCURACY_VALUE',
'Maximum model space distance between geometric entities at asserted c
onnectivities');
#1775=(
GEOMETRIC_REPRESENTATION_CONTEXT(3)
GLOBAL_UNCERTAINTY_ASSIGNED_CONTEXT((#1773))
GLOBAL_UNIT_ASSIGNED_CONTEXT((#1777,#1779,#1780))
REPRESENTATION_CONTEXT('','3D')
);
#1776=(
GEOMETRIC_REPRESENTATION_CONTEXT(3)
GLOBAL_UNCERTAINTY_ASSIGNED_CONTEXT((#1774))
GLOBAL_UNIT_ASSIGNED_CONTEXT((#1777,#1779,#1780))
REPRESENTATION_CONTEXT('','3D')
);
#1777=(
LENGTH_UNIT()
NAMED_UNIT(*)
SI_UNIT(.MILLI.,.METRE.)
);
#1778=(
LENGTH_UNIT()
NAMED_UNIT(*)
SI_UNIT($,.METRE.)
);
#1779=(
NAMED_UNIT(*)
PLANE_ANGLE_UNIT()
SI_UNIT($,.RADIAN.)
);
#1780=(
NAMED_UNIT(*)
SI_UNIT($,.STERADIAN.)
SOLID_ANGLE_UNIT()
);
#1781=SHAPE_DEFINITION_REPRESENTATION(#1782,#1783);
#1782=PRODUCT_DEFINITION_SHAPE('',$,#1785);
#1783=SHAPE_REPRESENTATION('',(#1125),#1775);
#1784=PRODUCT_DEFINITION_CONTEXT('part definition',#1789,'design');
#1785=PRODUCT_DEFINITION('2026-08-01-14-05-14-698','Macropad',#1786,#1784);
#1786=PRODUCT_DEFINITION_FORMATION('',$,#1791);
#1787=PRODUCT_RELATED_PRODUCT_CATEGORY('Macropad','Macropad',(#1791));
#1788=APPLICATION_PROTOCOL_DEFINITION('international standard',
'automotive_design',2009,#1789);
#1789=APPLICATION_CONTEXT(
'Core Data for Automotive Mechanical Design Process');
#1790=PRODUCT_CONTEXT('part definition',#1789,'mechanical');
#1791=PRODUCT('2026-08-01-14-05-14-698','Macropad',$,(#1790));
#1792=PRESENTATION_STYLE_ASSIGNMENT((#1795));
#1793=PRESENTATION_STYLE_ASSIGNMENT((#1796));
#1794=PRESENTATION_STYLE_ASSIGNMENT((#1797));
#1795=SURFACE_STYLE_USAGE(.BOTH.,#1798);
#1796=SURFACE_STYLE_USAGE(.BOTH.,#1799);
#1797=SURFACE_STYLE_USAGE(.BOTH.,#1800);
#1798=SURFACE_SIDE_STYLE('',(#1801));
#1799=SURFACE_SIDE_STYLE('',(#1802));
#1800=SURFACE_SIDE_STYLE('',(#1803));
#1801=SURFACE_STYLE_FILL_AREA(#1804);
#1802=SURFACE_STYLE_FILL_AREA(#1805);
#1803=SURFACE_STYLE_FILL_AREA(#1806);
#1804=FILL_AREA_STYLE('Paint - Metal Flake (Blue)',(#1807));
#1805=FILL_AREA_STYLE('Paint - Metal Flake (Red)',(#1808));
#1806=FILL_AREA_STYLE('Paint - Metal Flake (Silver)',(#1809));
#1807=FILL_AREA_STYLE_COLOUR('Paint - Metal Flake (Blue)',#1810);
#1808=FILL_AREA_STYLE_COLOUR('Paint - Metal Flake (Red)',#1811);
#1809=FILL_AREA_STYLE_COLOUR('Paint - Metal Flake (Silver)',#1812);
#1810=COLOUR_RGB('Paint - Metal Flake (Blue)',0.188235294117647,0.231372549019608,
0.588235294117647);
#1811=COLOUR_RGB('Paint - Metal Flake (Red)',0.768627450980392,0.207843137254902,
0.152941176470588);
#1812=COLOUR_RGB('Paint - Metal Flake (Silver)',0.984313725490196,0.980392156862745,
0.96078431372549);
ENDSEC;
END-ISO-10303-21;
